<?xml version="1.0" encoding="UTF-8"?>
<!DOCTYPE svg PUBLIC "-//W3C//DTD SVG 1.1//EN" "http://www.w3.org/Graphics/SVG/1.1/DTD/svg11.dtd">
<svg version="1.1" xmlns="http://www.w3.org/2000/svg" xmlns:xlink="http://www.w3.org/1999/xlink" x="0" y="0" width="1000" height="720" viewBox="0, 0, 1000, 720">
  <g id="Layer_1">
    <g>
      <path d="M494.946,399.127 L494.946,346.94 C494.946,344.23 492.748,342.031 490.037,342.031 C487.326,342.031 485.128,344.23 485.128,346.94 L485.128,399.127 z" fill="#000000"/>
      <path d="M333.976,264.36 L490.518,179.276 L647.803,262.383 L485.148,362.389 z M490.501,175.972 L331.195,262.557 L330.373,263.433 L330.373,265.493 L484.334,365.335 L485.108,365.835 L653.672,262.19 z" fill="#000000"/>
      <path d="M665.484,262.095 L658.965,262.095 L660.754,263.039 L485.42,372.488 L327.183,269.879 L319.398,265.055 L314.993,264.176 L314.993,265.755 L321.226,269.648 L324.135,271.534 L485.375,376.094 L666.159,263.299 L666.159,262.451 z" fill="#000000"/>
      <path d="M490.726,166.209 L490.03,165.834 L314.994,261.989 L314.994,264.812 L315.313,265.365 L490.047,169.148 L665.406,263.434 L666.16,263.434 L666.16,260.535 z" fill="#000000"/>
      <path d="M666.159,260.5 L650.564,260.5 C649.683,260.5 648.97,261.214 648.97,262.095 C648.97,262.976 649.683,263.688 650.564,263.688 L666.159,263.688 z" fill="#000000"/>
      <path d="M330.73,262.667 L314.994,262.667 L314.994,266.054 L330.73,266.054 C331.665,266.054 332.423,265.295 332.423,264.36 C332.423,263.425 331.665,262.667 330.73,262.667" fill="#000000"/>
      <path d="M489.086,193.957 C489.086,194.768 489.743,195.425 490.554,195.425 C491.365,195.425 492.022,194.768 492.022,193.957 L492.022,158.606 C492.022,157.796 491.365,157.139 490.554,157.139 C489.743,157.139 489.086,157.796 489.086,158.606 z" fill="#000000"/>
      <path d="M513.88,303.717 C513.342,306.24 512.531,308.453 511.434,310.336 C509.279,314.03 506.513,316.849 503.127,318.797 C499.745,320.745 495.95,322.003 491.746,322.564 C490.651,322.711 489.582,322.786 488.501,322.895 L488.501,323.41 L522.953,323.41 L522.953,320.794 L513.88,320.794 z" fill="#000000"/>
      <path d="M472.901,319.739 L464.443,319.739 L464.443,268.986 C468.851,268.986 472.849,269.319 476.438,269.984 C480.026,270.654 483.129,271.934 485.744,273.831 C488.358,275.729 490.383,278.42 491.82,281.904 C492.593,283.783 493.14,286.003 493.497,288.508 C493.801,290.65 493.971,292.994 493.971,295.593 C493.971,297.718 493.802,299.699 493.497,301.562 C492.711,306.354 490.932,310.296 488.127,313.358 C484.231,317.614 479.155,319.739 472.901,319.739 M464.443,222.537 C465.465,222.334 466.416,222.152 467.287,221.999 C468.158,221.844 469.005,221.767 469.826,221.767 C472.593,221.767 475.286,222.306 477.9,223.384 C480.515,224.461 482.846,226.024 484.898,228.074 C486.948,230.127 488.613,232.61 489.897,235.534 C491.177,238.455 491.82,241.712 491.82,245.3 C491.82,249.914 491.05,253.604 489.512,256.374 C487.973,259.14 485.975,261.295 483.513,262.834 C481.054,264.37 478.334,265.37 475.363,265.832 C472.387,266.294 469.464,266.524 466.595,266.524 L464.443,266.524 z M500.586,317.741 C503.97,315.793 506.738,312.973 508.892,309.28 C509.279,308.617 509.587,307.861 509.902,307.116 L509.909,307.238 C509.959,307.096 509.99,306.967 510.038,306.826 C510.56,305.54 511.015,304.176 511.339,302.661 L511.339,302.243 C514.648,287.816 508.457,280.206 508.457,280.206 L508.459,280.231 C507.805,279.181 507.088,278.192 506.276,277.29 C504.429,275.24 502.278,273.548 499.816,272.215 C497.82,271.135 495.695,270.268 493.497,269.523 C492.985,269.35 492.496,269.141 491.974,268.986 L491.974,267.447 C492.505,267.303 492.985,267.084 493.497,266.909 C497.713,265.468 501.256,263.048 504.046,259.525 C507.172,255.58 508.738,250.581 508.738,244.531 C508.738,238.482 507.43,233.792 504.814,230.459 C502.201,227.129 498.945,224.667 495.048,223.076 C494.541,222.869 494.014,222.703 493.497,222.517 L493.497,222.384 L493.123,222.384 C490.833,221.591 488.452,220.988 485.96,220.616 C484.805,220.444 483.633,220.31 482.436,220.229 C477.924,219.924 473.772,219.769 469.98,219.769 L439.065,219.769 L439.065,222.384 L447.371,222.384 L447.371,319.739 L439.065,319.739 L439.065,322.354 L476.9,322.354 C479.858,322.354 482.89,322.148 485.96,321.84 C487.04,321.73 488.109,321.656 489.204,321.509 C493.408,320.947 497.203,319.689 500.586,317.741" fill="#000000"/>
      <path d="M559.558,219.769 L488.501,219.769 L488.501,220.616 C490.994,220.988 493.375,221.59 495.665,222.383 L496.038,222.383 L496.038,222.517 C496.557,222.703 497.083,222.869 497.591,223.076 C501.487,224.666 504.744,227.128 507.357,230.458 C509.972,233.791 511.281,238.482 511.281,244.531 C511.281,250.581 509.714,255.58 506.587,259.525 C504.675,261.94 502.383,263.801 499.787,265.219 C498.286,266.007 496.235,266.915 493.497,267.794 L493.497,268.628 C493.497,268.628 496.485,269.702 498.238,270.352 C498.506,270.457 498.784,270.548 499.049,270.659 C499.169,270.705 499.258,270.74 499.327,270.769 C500.364,271.207 501.377,271.684 502.358,272.214 C504.82,273.547 506.972,275.24 508.819,277.29 C510.664,279.342 512.099,281.777 513.124,284.596 C513.425,285.423 513.667,286.306 513.88,287.216 L513.88,271.446 C514.7,271.446 515.622,271.423 516.648,271.369 C517.672,271.319 518.593,271.291 519.417,271.291 L523.723,271.291 C526.182,271.291 528.386,271.499 530.337,271.907 C532.283,272.319 533.975,273.165 535.412,274.446 C536.847,275.729 537.973,277.573 538.795,279.983 C539.614,282.392 540.076,285.596 540.18,289.594 L542.639,289.594 L542.639,249.452 L540.18,249.452 C540.18,254.274 539.743,257.937 538.871,260.449 C538,262.962 536.665,264.809 534.873,265.986 C533.079,267.166 530.848,267.832 528.183,267.986 C525.515,268.139 522.44,268.216 518.955,268.216 L513.88,268.216 L513.88,222.39 L528.336,222.39 C532.437,222.39 536.204,222.519 539.641,222.778 C543.076,223.033 546.049,223.936 548.561,225.478 C551.073,227.021 553.045,229.466 554.483,232.809 C555.916,236.152 556.739,240.857 556.945,246.925 L559.711,246.925 z" fill="#000000"/>
      <path d="M657.788,249.844 L657.178,281.26 L488.037,388.046 L321.656,281.31 L321.656,248.348 C318.756,228.776 313.851,245.347 313.119,247.993 L313.119,295.499 L488.822,407.665 L662.682,294.346 L665.924,292.311 L665.924,291.062 L665.924,290.145 L665.924,249.844 C665.924,249.844 659.912,236.959 657.788,249.844" fill="#000000"/>
      <path d="M245.11,444.771 L238.298,459.026 C237.163,461.296 236.598,462.929 236.598,463.92 C236.598,464.345 236.736,464.559 237.023,464.559 C237.45,464.559 238.088,464.313 238.939,463.816 C239.791,463.318 240.853,462.718 242.129,462.004 L243.407,461.367 C249.221,457.963 255.002,454.631 260.749,451.366 C266.492,448.107 272.271,444.701 278.087,441.155 C282.485,438.46 286.844,435.727 291.174,432.962 C295.499,430.198 299.718,427.325 303.835,424.346 C307.237,421.935 310.643,419.38 314.046,416.686 C317.451,413.992 320.57,411.153 323.408,408.174 C326.103,405.48 327.452,403.353 327.452,401.791 C327.452,399.807 325.111,398.812 320.43,398.812 L318.941,398.812 C316.103,398.956 313.159,399.381 310.11,400.089 C307.059,400.8 304.115,401.508 301.28,402.214 C297.591,403.353 293.974,404.558 290.428,405.833 C286.882,407.11 283.266,408.461 279.576,409.877 L268.727,414.345 C266.881,415.056 265.357,415.726 264.151,416.367 C262.946,417.004 261.881,417.748 260.959,418.599 C260.035,419.451 259.116,420.551 258.194,421.897 C257.27,423.249 256.173,424.984 254.897,427.111 C253.194,430.089 251.491,433.036 249.788,435.941 C248.089,438.849 246.526,441.792 245.11,444.771 M230.214,477.324 C228.939,480.166 227.695,482.965 226.49,485.73 C225.284,488.495 224.114,491.298 222.982,494.133 C220.708,499.385 219.008,502.006 217.873,502.006 C217.305,502.006 217.022,501.298 217.022,499.879 C217.022,498.888 217.2,497.644 217.554,496.155 C217.908,494.666 218.438,493 219.152,491.155 C223.69,480.516 228.333,469.986 233.088,459.558 C237.839,449.133 242.769,438.744 247.875,428.386 C249.151,426.119 249.788,424.7 249.788,424.132 C249.788,423.848 249.648,423.708 249.364,423.708 C248.653,423.708 247.307,424.206 245.32,425.197 C244.329,425.622 243.407,426.084 242.555,426.579 C241.704,427.079 240.853,427.538 240.001,427.962 C236.88,429.665 234.044,431.687 231.49,434.028 C228.939,436.365 226.171,438.46 223.192,440.303 C222.625,440.59 221.454,441.228 219.681,442.217 C217.908,443.211 216.384,443.707 215.108,443.707 C214.256,443.707 213.759,443.496 213.619,443.068 C213.476,442.931 213.405,442.717 213.405,442.43 C213.405,441.866 213.619,441.228 214.043,440.517 C214.47,439.809 214.821,439.312 215.108,439.028 C215.96,437.892 216.986,436.866 218.192,435.941 C219.398,435.019 220.568,434.206 221.703,433.495 C224.965,431.508 228.263,429.557 231.598,427.643 C234.928,425.727 238.298,423.992 241.704,422.429 L248.726,419.027 C250.853,417.891 252.375,416.935 253.299,416.154 C254.221,415.375 255.391,414.205 256.81,412.642 C258.226,410.802 259.435,409.877 260.429,409.877 C261.278,409.877 261.705,410.515 261.705,411.791 C261.705,412.078 261.667,412.253 261.6,412.324 C261.527,412.397 261.492,412.572 261.492,412.856 L269.579,409.237 C273.833,407.396 278.087,405.659 282.344,404.026 C286.598,402.396 290.993,400.941 295.537,399.664 C298.94,398.53 302.556,397.573 306.386,396.792 C310.216,396.013 313.973,395.622 317.665,395.622 C319.506,395.622 321.741,395.833 324.365,396.259 C326.99,396.685 328.798,397.822 329.793,399.664 C330.217,400.515 330.43,401.366 330.43,402.214 C330.43,403.917 329.933,405.621 328.941,407.323 C327.946,409.026 327.025,410.445 326.176,411.578 C323.622,414.842 320.676,417.929 317.346,420.834 C314.011,423.743 310.713,426.403 307.451,428.814 C298.94,435.338 290.145,441.298 281.068,446.688 L260.854,458.815 C256.173,461.654 253.832,463.283 253.832,463.708 C253.832,463.851 254.115,463.92 254.683,463.92 C256.243,463.92 259.007,463.426 262.981,462.431 C265.675,461.723 268.37,461.121 271.068,460.624 C273.76,460.126 276.457,459.596 279.152,459.026 C283.547,458.174 287.909,457.361 292.236,456.58 C296.564,455.801 300.926,455.128 305.324,454.558 C308.443,454.277 311.565,453.959 314.687,453.601 C317.802,453.25 320.995,453.069 324.26,453.069 C324.968,453.069 325.676,453.107 326.387,453.177 C327.095,453.25 327.803,453.283 328.514,453.283 C334.474,453.426 339.047,454.277 342.239,455.836 C345.431,457.399 347.026,459.667 347.026,462.645 C347.026,466.475 344.542,471.154 339.58,476.686 C338.017,478.389 336.387,480.057 334.685,481.687 C332.985,483.319 331.282,484.917 329.579,486.473 C327.592,488.176 325.536,489.847 323.408,491.473 C321.281,493.106 319.154,494.704 317.027,496.263 C310.924,500.804 304.718,505.058 298.407,509.029 C292.096,513.002 285.674,516.902 279.152,520.732 C275.749,522.718 272.343,524.635 268.938,526.475 C265.535,528.322 262.13,530.235 258.727,532.222 C254.326,534.63 249.967,536.935 245.639,539.135 C241.312,541.334 236.88,543.425 232.341,545.412 C227.66,547.679 222.908,549.844 218.087,551.901 C213.262,553.959 208.37,555.839 203.405,557.54 C199.715,558.674 195.815,559.807 191.701,560.945 C187.59,562.081 183.547,562.718 179.574,562.862 C177.306,562.862 175.249,562.504 173.403,561.796 C171.563,561.085 170.638,559.669 170.638,557.54 C170.638,556.404 170.781,555.482 171.063,554.774 C171.777,552.647 173.014,550.269 174.787,547.647 C176.563,545.02 178.547,542.398 180.744,539.774 C182.947,537.149 185.18,534.7 187.447,532.432 C189.717,530.165 191.775,528.392 193.618,527.114 C194.042,526.833 194.756,526.406 195.745,525.837 C196.737,525.273 197.661,524.986 198.513,524.986 C199.077,524.986 199.502,525.129 199.788,525.414 C200.069,525.981 200.213,526.406 200.213,526.689 C200.213,527.114 200.139,527.576 200.002,528.073 C199.859,528.571 199.715,528.959 199.575,529.244 C198.864,530.378 198.05,531.403 197.129,532.328 C196.204,533.249 195.248,534.062 194.256,534.773 C192.272,536.333 190.212,537.787 188.085,539.135 C185.958,540.482 184.042,542.149 182.341,544.136 C180.925,545.696 179.293,547.503 177.446,549.56 C175.606,551.618 174.398,553.636 173.83,555.625 C173.69,556.05 173.617,556.547 173.617,557.115 C173.617,558.107 173.974,558.745 174.682,559.032 C175.393,559.312 176.314,559.456 177.446,559.456 C181.136,559.456 185.036,558.818 189.15,557.54 C193.267,556.263 196.81,555.058 199.788,553.923 C204.751,551.936 209.716,549.844 214.681,547.647 C219.646,545.447 224.538,543.141 229.363,540.73 C237.307,536.76 245.142,532.646 252.875,528.392 C260.605,524.135 268.3,519.81 275.96,515.413 C277.946,514.278 279.93,513.072 281.917,511.793 C283.903,510.518 285.887,509.243 287.877,507.963 C291.988,505.272 296.102,502.575 300.218,499.879 C304.329,497.188 308.443,494.42 312.556,491.582 C316.954,488.463 321.068,485.412 324.898,482.433 C326.741,481.017 328.549,479.594 330.325,478.175 C332.095,476.759 333.763,475.27 335.325,473.708 C335.89,473.143 336.672,472.397 337.666,471.475 C338.655,470.554 339.612,469.527 340.536,468.388 C341.458,467.256 342.239,466.122 342.877,464.986 C343.515,463.851 343.834,462.786 343.834,461.793 C343.834,461.367 343.761,461.015 343.623,460.729 C343.337,459.74 342.59,458.994 341.388,458.497 C340.182,457.999 338.869,457.61 337.453,457.326 C336.033,457.042 334.611,456.867 333.195,456.793 C331.777,456.723 330.714,456.685 330.006,456.685 C326.033,456.685 322.095,456.867 318.194,457.217 C314.292,457.575 310.429,458.037 306.599,458.602 C302.202,459.169 297.839,459.807 293.515,460.515 C289.185,461.229 284.825,462.004 280.428,462.856 C274.898,463.994 269.397,465.197 263.938,466.475 C258.478,467.75 252.98,469.1 247.45,470.516 C246.88,470.659 245.566,470.943 243.512,471.367 C241.455,471.794 239.434,472.148 237.45,472.432 L235.001,472.432 C234.363,472.432 233.757,472.576 233.193,472.856 C232.625,473.143 232.131,473.602 231.704,474.241 C231.279,474.878 230.779,475.908 230.214,477.324" fill="#000000"/>
      <path d="M366.6,476.476 C365.605,476.476 364.897,476.9 364.47,477.751 C363.478,479.738 362.981,481.511 362.981,483.071 C362.981,484.346 363.335,484.984 364.046,484.984 C365.462,484.984 366.457,484.027 367.024,482.114 C367.589,480.198 367.946,478.747 368.089,477.751 C368.089,476.9 367.589,476.476 366.6,476.476 M367.024,472.646 C367.308,472.505 367.662,472.432 368.089,472.432 C368.654,472.432 369.222,472.719 369.789,473.284 C370.217,473.707 370.536,473.995 370.749,474.135 C370.96,474.276 371.419,474.345 372.13,474.345 L388.939,473.495 C389.647,473.495 390.004,473.707 390.004,474.135 C390.004,474.703 389.58,475.126 388.728,475.411 L372.557,476.262 C371.419,476.262 370.854,476.759 370.854,477.751 C370.568,480.165 369.825,482.506 368.622,484.773 C367.413,487.043 365.886,488.176 364.046,488.176 C362.343,488.176 360.994,487.682 360.002,486.687 C358.726,485.412 358.089,483.638 358.089,481.368 C358.089,480.092 358.303,478.886 358.726,477.751 C359.578,475.484 361.067,473.781 363.194,472.646 C363.759,472.362 364.397,472.218 365.111,472.218 C365.535,472.218 366.173,472.362 367.024,472.646" fill="#000000"/>
      <path d="M385.109,492.22 C384.544,492.645 383.906,493.072 383.192,493.496 C382.484,493.923 381.633,494.134 380.641,494.134 C379.79,494.134 379.362,493.996 379.362,493.709 C379.362,493.285 379.576,492.897 380.003,492.539 C380.427,492.189 380.784,491.937 381.065,491.793 C381.776,491.368 382.484,491.018 383.192,490.73 C383.906,490.448 384.614,490.023 385.322,489.454 C386.03,488.888 386.774,488.359 387.555,487.858 C388.333,487.364 389.079,486.76 389.79,486.049 C390.498,485.342 390.852,484.773 390.852,484.347 C390.852,483.923 390.568,483.424 390.001,482.858 C388.301,481.155 387.236,478.604 386.812,475.198 C386.812,474.917 386.774,474.703 386.703,474.56 C386.63,474.419 386.598,474.209 386.598,473.922 C386.598,472.219 387.163,471.367 388.301,471.367 C389.009,471.367 389.79,471.795 390.642,472.647 C391.49,473.495 392.058,474.56 392.341,475.835 C392.482,476.687 392.695,477.433 392.982,478.071 C393.263,478.709 393.547,479.315 393.831,479.879 C394.114,480.59 394.539,480.945 395.109,480.945 C395.534,480.945 396.098,480.59 396.812,479.879 L404.896,472.219 C406.028,471.087 407.094,470.306 408.088,469.878 C408.369,469.598 408.796,469.454 409.364,469.454 C409.791,469.454 410.002,469.665 410.002,470.092 C410.002,470.517 409.683,471.017 409.045,471.581 C408.407,472.148 407.945,472.576 407.661,472.857 C406.099,473.995 404.577,475.236 403.088,476.581 C401.599,477.931 400.071,479.315 398.512,480.73 C397.801,481.298 397.45,481.795 397.45,482.22 C397.45,482.644 398.015,482.931 399.15,483.072 C399.717,483.358 400.285,483.495 400.853,483.495 L402.769,483.495 C403.758,483.495 404.753,483.424 405.748,483.284 C406.736,483.145 407.661,482.931 408.513,482.644 C411.775,481.936 415.178,480.836 418.727,479.347 C422.27,477.858 425.462,476.407 428.3,474.985 C429.436,474.419 430.109,474.101 430.322,474.028 C430.536,473.957 430.781,473.922 431.068,473.922 C431.776,473.922 432.13,474.135 432.13,474.56 C432.13,474.985 431.706,475.411 430.855,475.835 C427.733,477.398 424.008,479.066 419.684,480.836 C415.356,482.612 411.207,484.066 407.237,485.199 C404.399,486.049 401.631,486.474 398.939,486.474 C397.801,486.474 396.95,486.407 396.385,486.263 C395.817,486.122 395.109,486.049 394.258,486.049 C393.12,486.049 392.131,486.474 391.279,487.325 C390.141,488.177 389.114,489.029 388.192,489.88 C387.268,490.73 386.241,491.512 385.109,492.22" fill="#000000"/>
      <path d="M440.004,457.113 C440.712,456.405 441.42,456.048 442.131,456.048 C443.407,456.048 444.045,456.685 444.045,457.964 C443.904,458.956 443.407,459.74 442.555,460.304 C442.272,461.015 441.844,461.44 441.28,461.581 C440.993,461.723 440.712,461.794 440.428,461.794 C439.293,461.794 438.726,461.156 438.726,459.878 C438.866,458.745 439.293,457.824 440.004,457.113 M426.812,481.368 C426.812,479.808 427.201,478.249 427.982,476.686 C428.76,475.127 429.503,473.781 430.217,472.646 C431.774,470.092 433.333,468.816 434.896,468.816 C436.312,468.816 437.025,469.665 437.025,471.367 C437.025,472.079 436.812,472.856 436.385,473.708 C436.101,474.135 435.642,474.846 435.004,475.835 C434.366,476.83 433.76,477.825 433.195,478.813 C432.769,479.665 432.555,480.379 432.555,480.944 C432.555,482.219 433.546,482.857 435.536,482.857 C436.385,482.857 437.236,482.787 438.087,482.643 C438.939,482.507 439.717,482.293 440.428,482.006 C444.115,480.874 447.664,479.633 451.067,478.284 C454.472,476.935 457.802,475.484 461.067,473.922 L461.919,473.708 C462.627,473.708 462.983,473.995 462.983,474.559 C462.983,474.984 462.627,475.341 461.919,475.625 C459.505,476.759 457.202,477.787 455.005,478.709 C452.802,479.633 450.569,480.516 448.302,481.368 C446.739,481.935 445.18,482.468 443.62,482.966 C442.058,483.463 440.499,483.923 438.939,484.346 C438.087,484.634 436.987,484.952 435.642,485.303 C434.293,485.66 432.982,485.836 431.706,485.836 C430.284,485.836 429.114,485.516 428.195,484.879 C427.271,484.241 426.812,483.071 426.812,481.368" fill="#000000"/>
      <path d="M477.663,474.773 C476.101,475.484 474.646,476.335 473.301,477.324 C471.952,478.319 470.641,479.241 469.365,480.092 C467.946,481.227 466.562,482.363 465.216,483.495 C463.865,484.633 462.627,485.979 461.492,487.539 C461.068,488.25 460.427,488.603 459.579,488.603 C458.864,488.603 458.162,488.176 457.448,487.325 C456.74,486.473 456.386,485.341 456.386,483.922 L456.386,483.071 C456.673,481.511 457.521,479.49 458.937,477.005 C460.353,474.527 461.632,472.787 462.767,471.794 C463.759,471.086 464.54,470.729 465.108,470.729 C466.811,470.729 467.663,471.51 467.663,473.07 C467.663,473.495 467.519,473.995 467.238,474.559 L466.387,475.835 C465.536,477.397 465.108,478.249 465.108,478.389 C465.108,478.676 465.605,478.427 466.598,477.646 C467.589,476.868 468.76,475.943 470.108,474.878 C471.457,473.816 472.876,472.752 474.366,471.686 C475.855,470.624 477.025,469.877 477.876,469.454 C478.866,469.027 479.717,468.816 480.428,468.816 C481.987,468.816 482.768,469.665 482.768,471.367 C482.768,472.218 482.558,473.143 482.131,474.135 C481.279,476.122 480.855,477.825 480.855,479.241 C480.855,481.086 481.844,482.005 483.833,482.005 C485.817,481.725 487.909,481.262 490.11,480.625 C492.307,479.984 494.472,479.276 496.599,478.495 C498.726,477.719 500.748,476.935 502.664,476.154 C504.578,475.378 506.246,474.632 507.664,473.921 C507.946,473.781 508.229,473.708 508.516,473.708 C509.08,473.708 509.365,473.995 509.365,474.559 C509.365,475.127 509.08,475.484 508.516,475.625 C506.386,476.476 504.154,477.397 501.813,478.389 C499.472,479.384 497.164,480.34 494.896,481.262 C492.626,482.187 490.429,482.93 488.301,483.495 C486.174,484.065 484.328,484.346 482.768,484.346 C481.066,484.346 479.647,483.922 478.515,483.071 C477.376,482.219 476.811,480.944 476.811,479.241 C476.811,478.813 476.844,478.249 476.917,477.538 C476.987,476.83 477.239,475.908 477.663,474.773" fill="#000000"/>
      <path d="M519.786,475.411 C518.794,474.419 517.872,473.922 517.021,473.922 C515.459,473.922 513.899,474.703 512.34,476.263 C510.777,477.825 509.999,479.385 509.999,480.944 C509.999,481.512 510.213,481.795 510.637,481.795 C511.772,481.795 513.191,481.336 514.893,480.411 C516.597,479.49 518.153,478.603 519.575,477.752 C520.14,477.187 520.427,476.76 520.427,476.476 C520.427,476.192 520.213,475.835 519.786,475.411 M514.893,484.984 C513.191,485.836 511.629,486.263 510.213,486.263 C508.51,486.263 507.126,485.765 506.063,484.773 C504.999,483.782 504.467,482.433 504.467,480.73 C504.467,477.895 505.637,475.235 507.977,472.752 C510.318,470.27 512.904,469.027 515.745,469.027 C517.445,469.027 519.289,469.527 521.275,470.516 C521.843,471.087 522.34,471.367 522.767,471.367 C523.049,471.367 523.405,471.016 523.829,470.306 C524.394,469.17 525.032,468.319 525.746,467.751 C526.31,467.327 526.878,467.113 527.446,467.113 C527.873,467.113 528.154,467.186 528.297,467.327 C529.148,467.751 529.576,468.532 529.576,469.665 C529.576,470.092 529.503,470.555 529.362,471.049 C529.219,471.549 529.075,471.938 528.935,472.219 C526.097,478.887 523.224,485.485 520.318,492.007 C517.41,498.534 514.393,505.058 511.277,511.583 L503.618,527.114 C502.482,529.385 501.312,531.617 500.107,533.817 C498.901,536.015 497.587,538.25 496.168,540.52 C490.922,549.596 486.882,554.137 484.041,554.137 C482.481,554.137 481.7,552.574 481.7,549.456 C481.7,547.753 482.057,545.128 482.765,541.582 C483.333,538.32 484.328,534.596 485.744,530.411 C487.162,526.23 488.69,522.081 490.317,517.965 C491.95,513.853 493.617,509.986 495.317,506.369 C497.02,502.753 498.509,499.88 499.788,497.753 C501.35,495.198 502.658,493.39 503.723,492.325 C504.788,491.264 505.601,490.73 506.169,490.73 C506.877,490.73 507.234,491.299 507.234,492.433 C507.234,493.569 506.915,494.88 506.277,496.369 C505.637,497.858 504.75,499.172 503.618,500.305 C501.915,501.867 500.531,503.569 499.466,505.413 C498.404,507.256 497.377,509.173 496.382,511.156 C495.531,513.003 494.679,514.954 493.828,517.008 C492.976,519.064 492.201,521.016 491.487,522.859 C489.787,527.114 488.298,531.722 487.019,536.69 C485.744,541.652 485.106,544.631 485.106,545.626 C485.106,546.334 485.249,546.69 485.53,546.69 C486.1,546.69 487.057,545.553 488.403,543.285 C489.752,541.015 491.276,538.25 492.976,534.987 C495.39,530.449 497.766,525.806 500.107,521.052 C502.447,516.3 504.75,511.583 507.02,506.902 C508.58,503.64 510.107,500.343 511.597,497.007 C513.086,493.678 514.607,490.377 516.17,487.114 C516.734,485.979 517.021,485.198 517.021,484.773 C517.021,484.49 516.878,484.347 516.597,484.347 C516.31,484.347 515.745,484.56 514.893,484.984" fill="#000000"/>
      <path d="M608.51,472.006 C608.226,472.149 607.872,472.219 607.448,472.219 C606.877,472.219 606.596,472.647 606.596,473.495 L606.596,474.56 C606.596,476.974 606.737,478.176 607.021,478.176 C607.161,478.176 607.799,476.901 608.937,474.346 C608.937,474.066 609.077,473.638 609.362,473.07 C609.501,472.93 609.574,472.72 609.574,472.433 C609.574,472.149 609.218,472.006 608.51,472.006 M608.299,469.454 C609.574,469.314 610.388,469.135 610.745,468.922 C611.096,468.708 611.415,468.249 611.701,467.538 C612.41,465.979 613.086,464.384 613.724,462.751 C614.362,461.121 615.034,459.527 615.745,457.964 C622.267,443.069 629.289,429.238 636.809,416.473 C637.092,415.908 637.517,415.233 638.087,414.451 C638.652,413.673 638.939,412.786 638.939,411.791 C638.939,411.227 638.439,410.941 637.449,410.941 C637.022,410.941 636.525,410.979 635.957,411.048 C635.39,411.121 634.752,411.227 634.043,411.367 C621.559,413.354 609.821,415.589 598.831,418.068 C587.836,420.552 578.511,423 570.851,425.408 C569.008,425.836 568.083,426.19 568.083,426.474 C568.083,426.617 569.149,426.971 571.276,427.538 C571.419,427.538 571.524,427.573 571.594,427.644 C571.667,427.717 571.776,427.749 571.913,427.749 C582.692,429.876 590.777,434.452 596.171,441.475 C601.558,448.496 604.894,457.256 606.169,467.751 C606.31,468.89 606.737,469.454 607.448,469.454 z M564.681,424.771 C568.935,423.068 574.716,421.19 582.022,419.133 C589.325,417.078 597.587,414.984 606.81,412.857 C616.027,410.73 625.921,408.708 636.489,406.791 C647.055,404.878 657.626,403.175 668.195,401.686 C678.759,400.196 689.047,398.992 699.044,398.068 C709.045,397.148 718.159,396.686 726.386,396.686 C733.76,396.686 740.182,397.077 745.642,397.856 C751.101,398.637 755.18,400.02 757.877,402.005 C759.437,403.143 760.218,404.418 760.218,405.834 C760.218,406.973 759.718,407.962 758.729,408.813 C757.734,409.664 756.244,410.162 754.261,410.302 C751.847,410.302 750.18,410.089 749.261,409.664 C748.336,409.237 747.877,408.743 747.877,408.175 C747.877,407.61 748.442,407.11 749.579,406.686 C751.99,406.259 753.196,405.834 753.196,405.407 C753.196,405.27 752.558,404.984 751.282,404.559 C748.017,403.851 744.153,403.318 739.685,402.961 C735.217,402.61 730.286,402.429 724.897,402.429 C715.111,402.429 704.328,402.929 692.555,403.918 C680.781,404.913 668.654,406.259 656.172,407.962 C652.906,408.389 650.533,409.027 649.044,409.878 C647.555,410.73 646.028,412.43 644.468,414.984 C640.355,421.792 636.346,428.957 632.449,436.474 C628.546,443.993 624.751,451.938 621.065,460.305 L619.789,463.283 C618.938,465.271 618.51,466.549 618.51,467.113 C618.51,467.824 619.075,468.176 620.213,468.176 C620.497,468.176 620.886,468.144 621.383,468.07 C621.878,468 622.481,467.965 623.192,467.965 C628.014,467.398 632.906,466.938 637.873,466.581 C642.836,466.23 648.088,465.908 653.617,465.624 C654.325,465.624 655.001,465.697 655.639,465.835 C656.278,465.979 656.596,466.262 656.596,466.687 C656.596,467.538 655.177,467.965 652.342,467.965 C647.374,468.249 642.482,468.568 637.66,468.922 C632.835,469.276 627.944,469.738 622.978,470.306 C620.283,470.59 618.437,470.979 617.448,471.476 C616.453,471.974 615.458,473.428 614.47,475.835 L607.234,493.923 C606.383,496.337 605.744,498.32 605.321,499.88 C604.894,501.443 604.469,503.357 604.042,505.623 C604.042,505.91 604.007,506.124 603.937,506.265 C603.864,506.404 603.828,506.618 603.828,506.902 C602.553,513.997 600.958,521.017 599.041,527.965 C597.128,534.914 594.963,541.796 592.552,548.605 C591.841,550.872 590.957,552.61 589.893,553.819 C588.83,555.021 587.87,555.626 587.02,555.626 C585.743,555.626 585.106,554.421 585.106,552.01 C585.106,551.299 585.176,550.521 585.32,549.669 C585.457,548.818 585.67,547.823 585.957,546.691 C588.368,537.893 590.849,529.136 593.404,520.414 C595.958,511.689 598.723,502.932 601.701,494.134 C602.128,492.718 602.518,491.512 602.871,490.518 C603.226,489.528 603.475,488.568 603.617,487.645 C603.755,486.726 603.899,485.731 604.042,484.666 C604.183,483.604 604.255,482.293 604.255,480.731 L604.255,476.901 C604.255,475.341 604.113,474.315 603.828,473.817 C603.544,473.319 602.98,473.07 602.128,473.07 L600.958,473.07 C600.458,473.07 599.925,473.144 599.361,473.284 C598.368,473.568 597.409,473.746 596.49,473.817 C595.566,473.89 594.606,473.995 593.617,474.136 C591.203,474.419 588.544,475.165 585.638,476.368 C582.73,477.576 580.211,478.176 578.084,478.176 C576.951,478.176 576.381,477.825 576.381,477.114 C576.381,476.406 576.913,475.66 577.979,474.879 C579.04,474.101 580.638,473.568 582.765,473.284 C588.298,472.292 594.041,471.441 599.998,470.73 C601.417,470.446 602.409,470.165 602.98,469.878 C603.544,469.598 603.828,468.89 603.828,467.751 C603.828,467.468 603.793,467.219 603.723,467.005 C603.65,466.795 603.617,466.549 603.617,466.262 C602.055,455.91 598.33,447.432 592.447,440.836 C586.56,434.238 577.586,430.377 565.531,429.238 C562.126,428.957 560.423,428.387 560.423,427.538 C560.423,426.687 561.842,425.766 564.681,424.771" fill="#000000"/>
      <path d="M681.916,457.113 C682.624,456.405 683.332,456.048 684.043,456.048 C685.319,456.048 685.957,456.685 685.957,457.964 C685.816,458.956 685.319,459.74 684.468,460.304 C684.184,461.015 683.757,461.44 683.191,461.581 C682.905,461.723 682.624,461.794 682.341,461.794 C681.205,461.794 680.638,461.156 680.638,459.878 C680.778,458.745 681.205,457.824 681.916,457.113 M668.724,481.368 C668.724,479.808 669.112,478.249 669.894,476.686 C670.672,475.127 671.415,473.781 672.129,472.646 C673.686,470.092 675.245,468.816 676.808,468.816 C678.224,468.816 678.937,469.665 678.937,471.367 C678.937,472.079 678.724,472.856 678.297,473.708 C678.013,474.135 677.554,474.846 676.916,475.835 C676.278,476.83 675.673,477.825 675.107,478.813 C674.681,479.665 674.467,480.379 674.467,480.944 C674.467,482.219 675.459,482.857 677.448,482.857 C678.297,482.857 679.148,482.787 680,482.643 C680.852,482.507 681.63,482.293 682.341,482.006 C686.027,480.874 689.576,479.633 692.979,478.284 C696.385,476.935 699.714,475.484 702.979,473.922 L703.831,473.708 C704.539,473.708 704.895,473.995 704.895,474.559 C704.895,474.984 704.539,475.341 703.831,475.625 C701.417,476.759 699.114,477.787 696.917,478.709 C694.714,479.633 692.481,480.516 690.214,481.368 C688.651,481.935 687.092,482.468 685.532,482.966 C683.97,483.463 682.411,483.923 680.852,484.346 C680,484.634 678.899,484.952 677.554,485.303 C676.205,485.66 674.895,485.836 673.618,485.836 C672.196,485.836 671.026,485.516 670.107,484.879 C669.183,484.241 668.724,483.071 668.724,481.368" fill="#000000"/>
      <path d="M742.338,475.835 C740.211,477.114 737.797,478.568 735.106,480.198 C732.407,481.83 729.605,483.425 726.699,484.984 C723.791,486.547 720.848,487.966 717.869,489.241 C714.891,490.518 712.053,491.442 709.358,492.007 C708.366,492.293 707.231,492.577 705.955,492.858 C704.677,493.145 703.471,493.285 702.336,493.285 C700.774,493.285 699.358,492.897 698.081,492.115 C696.806,491.337 696.168,489.88 696.168,487.752 C696.168,486.336 696.523,484.773 697.231,483.071 C697.09,482.931 697.017,482.644 697.017,482.22 C697.017,481.936 697.09,481.726 697.231,481.582 C697.373,481.582 697.443,481.617 697.443,481.688 C697.443,481.761 697.517,481.795 697.657,481.795 L697.868,481.795 C698.295,480.66 698.827,479.595 699.466,478.604 C700.104,477.611 700.706,476.76 701.274,476.049 C702.406,474.633 703.966,472.965 705.955,471.049 C707.939,469.135 709.923,468.176 711.912,468.176 C712.764,468.176 713.328,468.249 713.615,468.389 C715.175,468.816 715.955,469.878 715.955,471.581 C715.955,472.292 715.669,473.214 715.105,474.346 C713.966,476.049 712.406,477.647 710.423,479.136 C708.434,480.625 706.449,481.868 704.466,482.857 C703.755,483.284 703.258,483.568 702.977,483.709 C702.69,483.853 702.406,484.276 702.125,484.984 L701.274,486.688 C700.987,487.539 700.847,488.106 700.847,488.391 C700.847,489.241 701.2,489.81 701.911,490.093 C702.619,490.377 703.471,490.518 704.466,490.518 C705.317,490.518 706.201,490.447 707.125,490.304 C708.044,490.166 708.79,490.023 709.358,489.88 C711.912,489.314 714.642,488.426 717.55,487.22 C720.455,486.018 723.329,484.666 726.167,483.177 C729.005,481.688 731.732,480.166 734.359,478.604 C736.984,477.044 739.359,475.625 741.486,474.346 C742.051,474.065 742.408,473.922 742.552,473.922 C742.976,473.922 743.19,474.136 743.19,474.56 C743.19,475.271 742.902,475.698 742.338,475.835" fill="#000000"/>
      <path d="M757.02,474.773 C755.458,475.484 754.003,476.335 752.658,477.324 C751.309,478.319 749.999,479.241 748.721,480.092 C747.302,481.227 745.919,482.363 744.574,483.495 C743.221,484.633 741.984,485.979 740.849,487.539 C740.424,488.25 739.784,488.603 738.936,488.603 C738.221,488.603 737.52,488.176 736.805,487.325 C736.096,486.473 735.744,485.341 735.744,483.922 L735.744,483.071 C736.031,481.511 736.878,479.49 738.294,477.005 C739.711,474.527 740.99,472.787 742.124,471.794 C743.117,471.086 743.898,470.729 744.465,470.729 C746.168,470.729 747.02,471.51 747.02,473.07 C747.02,473.495 746.875,473.995 746.595,474.559 L745.744,475.835 C744.893,477.397 744.465,478.249 744.465,478.389 C744.465,478.676 744.963,478.427 745.955,477.646 C746.947,476.868 748.117,475.943 749.465,474.878 C750.815,473.816 752.234,472.752 753.723,471.686 C755.211,470.624 756.382,469.877 757.234,469.454 C758.223,469.027 759.075,468.816 759.786,468.816 C761.345,468.816 762.125,469.665 762.125,471.367 C762.125,472.218 761.916,473.143 761.487,474.135 C760.635,476.122 760.211,477.825 760.211,479.241 C760.211,481.086 761.202,482.005 763.19,482.005 C765.174,481.725 767.267,481.262 769.466,480.625 C771.664,479.984 773.83,479.276 775.957,478.495 C778.083,477.719 780.104,476.935 782.022,476.154 C783.935,475.378 785.603,474.632 787.022,473.921 C787.302,473.781 787.586,473.708 787.874,473.708 C788.438,473.708 788.721,473.995 788.721,474.559 C788.721,475.127 788.438,475.484 787.874,475.625 C785.744,476.476 783.51,477.397 781.169,478.389 C778.83,479.384 776.521,480.34 774.253,481.262 C771.983,482.187 769.786,482.93 767.659,483.495 C765.531,484.065 763.685,484.346 762.125,484.346 C760.423,484.346 759.004,483.922 757.872,483.071 C756.734,482.219 756.168,480.944 756.168,479.241 C756.168,478.813 756.201,478.249 756.273,477.538 C756.344,476.83 756.596,475.908 757.02,474.773" fill="#000000"/>
      <path d="M796.595,473.07 C794.892,473.357 793.225,474.209 791.595,475.625 C789.962,477.044 788.722,478.533 787.87,480.092 C787.019,481.655 786.595,482.787 786.595,483.495 C786.595,484.065 786.808,484.346 787.233,484.346 C787.516,484.346 788.011,484.135 788.722,483.709 C790.565,482.576 792.159,481.192 793.508,479.559 C794.855,477.93 796.168,476.192 797.447,474.345 C797.87,473.922 798.084,473.568 798.084,473.284 C798.084,473 797.941,472.856 797.657,472.856 C797.514,472.856 797.373,472.894 797.233,472.965 C797.09,473.038 796.876,473.07 796.595,473.07 M822.34,441.155 C820.212,444.421 817.658,448.425 814.68,453.177 C811.701,457.929 808.723,462.645 805.744,467.327 C802.766,472.006 799.893,476.227 797.127,479.984 C794.36,483.747 792.127,486.123 790.424,487.114 C789.005,487.825 787.797,488.176 786.808,488.176 C785.53,488.176 784.467,487.752 783.616,486.901 C782.765,486.049 782.337,484.846 782.337,483.284 C782.337,482.576 782.41,481.83 782.551,481.049 C782.695,480.271 782.978,479.384 783.403,478.389 C784.395,476.406 785.849,474.597 787.765,472.965 C789.678,471.336 791.627,470.235 793.616,469.665 C794.041,469.527 794.962,469.454 796.381,469.454 C798.225,469.454 799.5,469.808 800.211,470.516 C802.338,467.538 804.574,464.313 806.914,460.835 C809.255,457.361 811.488,453.994 813.615,450.728 C815.744,447.469 817.729,444.488 819.574,441.793 C821.415,439.101 822.978,436.971 824.256,435.409 C825.956,433.282 827.372,432.216 828.51,432.216 C829.075,432.216 829.362,432.574 829.362,433.282 C829.362,433.849 829.005,434.984 828.297,436.687 C823.048,447.326 817.694,457.789 812.234,468.07 C806.772,478.357 801.985,489.028 797.87,500.093 C796.876,503.216 795.814,504.775 794.679,504.775 C793.403,504.775 792.765,503.425 792.765,500.731 C793.046,498.745 793.543,496.831 794.254,494.985 C798.366,484.917 802.904,475.484 807.871,466.686 C810.283,462.431 812.694,458.213 815.107,454.026 C817.515,449.844 819.926,445.552 822.34,441.155" fill="#000000"/>
    </g>
  </g>
</svg>
