<?xml version="1.0" encoding="UTF-8"?>
<!DOCTYPE svg PUBLIC "-//W3C//DTD SVG 1.1//EN" "http://www.w3.org/Graphics/SVG/1.1/DTD/svg11.dtd">
<svg version="1.1" xmlns="http://www.w3.org/2000/svg" xmlns:xlink="http://www.w3.org/1999/xlink" x="0" y="0" width="200" height="200" viewBox="0, 0, 200, 200">
  <g id="Layer_1">
    <g>
      <path d="M32.471,34.165 C32.471,34.165 146.542,19.957 148.617,19.537 C150.688,19.117 155.461,19.117 157.326,20.162 C159.193,21.211 163.132,23.717 163.753,25.387 C164.376,27.062 170.392,73.668 171.223,78.889 C172.052,84.116 178.274,131.765 178.274,133.225 C178.274,134.689 177.443,139.079 176.406,141.379 C175.368,143.675 175.991,145.768 171.635,147.228 C167.28,148.69 105.267,155.38 100.496,156.423 C95.726,157.47 56.321,161.857 52.795,162.277 C49.269,162.695 46.573,163.95 43.876,162.9 C41.18,161.857 37.031,157.26 36.617,154.331 C36.204,151.407 29.359,100.206 28.737,95.613 C28.114,91.011 24.381,59.87 23.966,57.783 C23.553,55.693 21.892,45.868 22.929,43.362 C23.966,40.854 25.21,37.514 26.663,36.672 C28.114,35.837 32.471,34.165 32.471,34.165" fill="#373535"/>
      <path d="M157.571,62.105 C160.733,63.28 163.524,65.305 165.152,67.406 C164.105,59.016 163.134,51.25 162.365,45.196 L122.068,50.106 C116.336,44.26 107.174,42.099 94.572,43.639 C85.718,44.717 81.491,46.976 81.912,50.416 C82.115,52.072 83.523,53.162 86.142,53.687 C88.688,54.257 97.316,54.061 110.997,54.941 C118.349,55.419 124.262,55.96 129.108,56.52 L129.442,56.557 C138.471,57.606 143.768,58.684 147.797,59.419 C150.944,59.952 154.205,60.848 157.571,62.105" fill="#FEFEFE"/>
      <path d="M72.934,145.463 C79.05,144.72 82.802,143.234 84.409,140.931 C85.96,138.672 86.553,135.961 86.176,132.859 C85.952,131.018 85.336,129.213 84.349,127.496 L84.349,127.494 C83.318,125.763 81.706,124.504 79.557,123.755 C77.424,122.999 73.894,122.937 68.765,123.562 L61.486,124.444 L64.181,146.533 z" fill="#FEFEFE"/>
      <path d="M162.487,148.159 C162.305,148.179 145.27,150.201 145.27,150.201 L113.174,150.099 L111.852,139.235 C115.141,138.832 128.171,137.245 128.403,137.216 C130.915,140.379 135.013,141.65 140.603,140.968 C144.806,140.452 146.822,139.252 146.596,137.392 C146.477,136.397 145.61,135.669 144.021,135.218 C142.425,134.764 139.076,134.261 134.068,133.72 C127.844,133.027 123.139,132.32 120.093,131.613 C117.702,131.076 115.54,130.188 113.47,128.883 L112.951,128.559 L113.194,129.717 C113.58,132.893 112.961,135.976 111.349,138.882 L111.339,138.9 L110.807,139.797 C108.806,142.975 106.049,145.589 102.624,147.567 C101.058,148.497 99.361,149.328 97.575,150.047 L42.841,149.87 C40.849,149.87 39.144,149.225 37.776,147.962 C37.752,147.934 36.971,147.036 36.971,147.036 C36.04,145.887 35.309,144.352 34.855,142.607 C34.853,142.598 34.853,142.598 34.85,142.59 C34.514,141.278 34.339,139.889 34.335,138.458 L34.335,138.443 L34.335,138.412 L34.28,118.416 L62.07,113.699 L62.087,113.889 C62.087,113.889 79.82,112.91 84.681,112.908 L84.714,112.389 C83.848,112.278 82.979,112.143 82.115,111.997 L67.221,108.219 C66.747,108.075 61.897,106.564 61.441,106.424 L61.891,111.637 L34.274,116.513 L34.206,91.411 L34.206,91.342 C34.66,91.29 69.784,87.36 70.041,87.33 C76.804,95.029 87.583,98.603 99.644,97.134 C109.645,95.909 114.285,93.485 113.828,89.718 C113.589,87.756 111.621,86.336 107.979,85.49 C106.112,85.055 102.964,85.102 98.976,85.162 C94.59,85.225 89.127,85.307 82.887,84.818 C67.817,83.57 56.542,82.254 49.371,80.899 C43.719,79.879 38.605,78.198 34.162,75.921 L34.068,41.352 C34.068,38.46 35.213,35.762 37.293,33.737 L62.339,30.767 L109.779,30.925 L122.152,35.791 L121.705,30.965 L156.245,31.078 C157.86,31.078 159.472,31.485 161.031,32.284 C161.082,32.325 164.54,35.174 164.594,35.216 C164.947,35.669 165.268,36.154 165.55,36.664 L165.541,36.61 L165.771,36.536 L165.791,36.53 L165.799,36.574 L165.895,37.342 C165.791,37.121 165.685,36.914 165.57,36.7 C165.564,36.689 165.553,36.675 165.55,36.664 L166.917,47.635 L166.917,47.618 L166.92,47.649 L166.917,47.635 C166.917,47.635 167.031,92.022 167.049,91.999 C161.516,97.757 161.31,97.287 159.948,98.383 C157.56,100.295 153.015,102.434 153.015,102.434 L153.149,102.949 L167.083,101.018 L167.13,116.213 C160.839,116.979 149.877,118.317 149.698,118.339 C147.211,115.513 143.301,114.404 138.06,115.042 C135.408,115.365 133.76,115.982 133.017,116.936 C132.995,116.962 132.98,116.994 132.959,117.024 C132.707,117.453 132.583,118.383 132.593,118.471 C132.707,119.379 133.375,119.987 134.583,120.28 C135.653,120.582 138.985,121.095 144.754,121.843 C152.254,122.848 157.416,123.654 160.091,124.248 C160.093,124.248 160.901,124.378 160.901,124.378 C162.244,124.575 164.715,124.942 167.157,125.714 C167.158,126.088 167.188,136.556 167.188,136.556 C167.188,140.068 165.716,145.18 162.487,148.159 M172.226,128.411 L172.214,124.286 C172.09,122.042 171.908,119.31 171.481,115.942 L171.45,115.683 C171.45,115.683 170.953,115.747 170.111,115.847 L169.979,72.073 L171.578,84.877 L171.838,84.858 L172.096,84.844 L171.958,39.938 C171.958,37.105 170.904,34.156 169.063,31.85 L169.049,31.829 L164.934,28.445 L164.038,28.008 L164.253,28.606 C164.55,29.439 164.918,31.619 164.918,31.619 L162.525,29.691 C160.508,28.633 158.396,28.096 156.35,28.096 L121.164,27.943 L121.044,26.956 L113.177,27.953 L86.887,27.863 L92.408,27.2 L92.377,26.684 L41.521,26.516 C36.001,26.516 31.059,30.012 29.217,35.222 L28.992,35.854 L29.582,35.535 C30.681,34.943 31.86,34.524 33.09,34.28 C31.786,36.412 31.086,38.84 31.086,41.356 L31.175,74.169 L30.832,73.9 L30.201,73.364 L31.195,81.339 C31.222,91.24 31.272,109.229 31.284,113.992 C30.606,108.55 29.15,96.867 29.15,96.867 L28.89,96.888 L28.633,96.901 L28.755,141.715 C28.755,145.719 29.927,149.463 31.972,151.984 L32.905,153.063 C34.038,154.121 35.344,154.849 36.809,155.25 L37.33,155.388 L37.116,154.899 C36.488,153.441 36.06,151.865 35.817,150.199 C37.741,151.951 40.097,152.851 42.837,152.851 L89.037,153.002 L89.245,153.002 L89.36,152.976 L89.362,153.002 L89.393,153 L89.393,153.002 L89.382,153.002 C90.131,153.002 114.311,153.083 120.828,153.105 C115.224,153.766 102.401,155.294 102.401,155.294 L102.417,155.553 L102.431,155.807 L160.305,155.992 C164.718,155.992 168.648,152.66 170.818,147.07 L170.925,146.791 L171.057,146.451 L170.466,146.745 C169.624,147.15 168.732,147.414 167.811,147.525 C167.811,147.525 167.236,147.595 166.766,147.649 C168.869,144.487 170.172,140.299 170.172,136.555 C170.172,136.555 170.145,127.771 170.145,126.957 C170.774,127.299 171.343,127.657 171.8,128.046 z" fill="#FEFEFE"/>
      <path d="M147.99,110.218 C144.766,109.267 140.958,108.835 136.669,108.93 L136.594,108.422 C140.556,107.352 144.24,106.156 147.545,104.855 L147.868,104.727 L148.352,110.319 z" fill="#FEFEFE"/>
      <path d="M114.734,114.415 L114.732,114.415 C111.58,116.33 109.713,118.558 109.179,121.03 L109.075,121.554 C109.075,121.554 108.369,120.734 108.361,120.727 C105.746,118.067 102.322,116.098 98.186,114.851 C98.001,114.798 97.814,114.755 97.63,114.704 C96.106,114.332 93.564,113.869 93.564,113.869 L93.628,113.356 C100.685,113.785 107.199,113.617 113.534,112.845 L116.816,112.39 L117.764,112.254 L117.909,112.744 C116.702,113.289 115.663,113.84 114.734,114.415" fill="#FEFEFE"/>
      <path d="M35.17,171.505 C35.04,170.8 34.71,170.404 34.119,170.404 C33.639,170.404 33.313,170.651 33.313,171.115 C33.313,172.492 36.767,173.053 36.767,175.685 C36.767,177.265 35.681,178.071 34.185,178.071 C32.572,178.071 31.649,177.151 31.371,175.604 L32.982,175.155 C33.098,175.899 33.36,176.556 34.201,176.556 C34.676,176.556 35.024,176.278 35.024,175.783 C35.024,174.253 31.568,173.678 31.568,171.26 C31.568,169.859 32.652,168.891 34.036,168.891 C35.483,168.891 36.454,169.859 36.735,171.241 z" fill="#373535"/>
      <path d="M41.917,172.08 L41.917,171.849 C41.917,170.831 41.554,170.404 40.897,170.404 C40.239,170.404 39.877,170.831 39.877,171.849 L39.877,175.11 C39.877,176.129 40.239,176.556 40.897,176.556 C41.554,176.556 41.917,176.129 41.917,175.11 L41.917,174.55 L43.76,174.55 L43.76,174.779 C43.76,176.724 43.002,178.071 40.897,178.071 C38.792,178.071 38.034,176.724 38.034,174.779 L38.034,172.182 C38.034,170.238 38.792,168.891 40.897,168.891 C42.969,168.891 43.727,170.193 43.76,172.08 z" fill="#373535"/>
      <path d="M45.355,177.906 L45.355,169.052 L47.116,169.052 L47.116,170.091 L47.149,170.091 C47.593,169.334 48.367,168.89 49.238,168.89 L49.617,168.89 L49.617,170.814 C49.287,170.731 48.976,170.633 48.433,170.633 C47.806,170.633 47.198,171.029 47.198,171.82 L47.198,177.906 z" fill="#373535"/>
      <path d="M54.539,172.312 L54.539,171.848 C54.539,170.831 54.176,170.404 53.518,170.404 C52.861,170.404 52.499,170.831 52.499,171.848 L52.499,172.312 z M56.381,173.826 L52.499,173.826 L52.499,175.11 C52.499,176.128 52.861,176.555 53.518,176.555 C54.176,176.555 54.539,176.128 54.539,175.11 L54.539,174.908 L56.381,174.908 C56.348,176.789 55.576,178.072 53.518,178.072 C51.414,178.072 50.656,176.723 50.656,174.779 L50.656,172.182 C50.656,170.238 51.414,168.891 53.518,168.891 C55.623,168.891 56.381,170.238 56.381,172.182 z" fill="#373535"/>
      <path d="M61.76,172.312 L61.76,171.848 C61.76,170.831 61.402,170.404 60.74,170.404 C60.083,170.404 59.72,170.831 59.72,171.848 L59.72,172.312 z M63.604,173.826 L59.72,173.826 L59.72,175.11 C59.72,176.128 60.083,176.555 60.74,176.555 C61.402,176.555 61.76,176.128 61.76,175.11 L61.76,174.908 L63.604,174.908 C63.572,176.789 62.798,178.072 60.74,178.072 C58.636,178.072 57.877,176.723 57.877,174.779 L57.877,172.182 C57.877,170.238 58.636,168.891 60.74,168.891 C62.848,168.891 63.604,170.238 63.604,172.182 z" fill="#373535"/>
      <path d="M65.2,177.906 L65.2,169.052 L66.945,169.052 L66.945,169.944 C67.72,169.286 68.114,168.89 69.181,168.89 C70.154,168.89 70.73,169.595 70.73,170.748 L70.73,177.906 L68.887,177.906 L68.887,171.045 C68.887,170.597 68.623,170.404 68.228,170.404 C67.835,170.404 67.471,170.651 67.044,170.963 L67.044,177.906 z" fill="#373535"/>
      <path d="M76.11,170.868 C75.748,170.597 75.419,170.404 75.058,170.404 C74.563,170.404 74.168,170.667 74.168,171.837 L74.168,175.123 C74.168,176.292 74.563,176.555 75.058,176.555 C75.419,176.555 75.748,176.356 76.11,176.096 z M76.21,177.906 L76.21,176.985 L76.174,176.985 C75.567,177.758 75.122,178.069 74.202,178.069 C73.049,178.069 72.326,177.213 72.326,175.603 L72.326,171.356 C72.326,169.744 73.049,168.89 74.202,168.89 C75.007,168.89 75.386,169.219 76.11,169.813 L76.11,166.027 L77.953,166.027 L77.953,177.906 z" fill="#373535"/>
      <path d="M83.433,171.849 C83.433,170.831 83.07,170.405 82.412,170.405 C81.754,170.405 81.392,170.831 81.392,171.849 L81.392,175.111 C81.392,176.129 81.754,176.556 82.412,176.556 C83.07,176.556 83.433,176.129 83.433,175.111 z M79.549,172.182 C79.549,170.239 80.305,168.891 82.412,168.891 C84.516,168.891 85.276,170.239 85.276,172.182 L85.276,174.78 C85.276,176.722 84.516,178.07 82.412,178.07 C80.305,178.07 79.549,176.722 79.549,174.78 z" fill="#373535"/>
      <path d="M90.656,171.849 C90.656,170.831 90.293,170.405 89.635,170.405 C88.978,170.405 88.615,170.831 88.615,171.849 L88.615,175.111 C88.615,176.129 88.978,176.556 89.635,176.556 C90.293,176.556 90.656,176.129 90.656,175.111 z M86.772,172.182 C86.772,170.239 87.531,168.891 89.635,168.891 C91.742,168.891 92.497,170.239 92.497,172.182 L92.497,174.78 C92.497,176.722 91.742,178.07 89.635,178.07 C87.531,178.07 86.772,176.722 86.772,174.78 z" fill="#373535"/>
      <path d="M94.094,177.906 L94.094,169.052 L95.856,169.052 L95.856,170.091 L95.888,170.091 C96.333,169.334 97.106,168.89 97.977,168.89 L98.357,168.89 L98.357,170.814 C98.027,170.731 97.714,170.633 97.17,170.633 C96.547,170.633 95.937,171.029 95.937,171.82 L95.937,177.906 z" fill="#373535"/>
      <path d="M101.337,176.096 C101.695,176.357 102.024,176.556 102.388,176.556 C102.882,176.556 103.274,176.292 103.274,175.123 L103.274,171.837 C103.274,170.667 102.882,170.405 102.388,170.405 C102.024,170.405 101.695,170.598 101.337,170.868 z M101.237,169.053 L101.237,169.975 L101.271,169.975 C101.877,169.2 102.321,168.891 103.243,168.891 C104.396,168.891 105.121,169.744 105.121,171.357 L105.121,175.604 C105.121,177.213 104.396,178.072 103.243,178.072 C102.438,178.072 102.058,177.742 101.337,177.152 L101.337,180.702 L99.492,180.702 L99.492,169.053 z" fill="#373535"/>
      <path d="M106.715,177.906 L106.715,169.052 L108.476,169.052 L108.476,170.091 L108.507,170.091 C108.952,169.334 109.728,168.89 110.6,168.89 L110.98,168.89 L110.98,170.814 C110.647,170.731 110.333,170.633 109.793,170.633 C109.167,170.633 108.559,171.029 108.559,171.82 L108.559,177.906 z" fill="#373535"/>
      <path d="M112.132,169.053 L113.973,169.053 L113.973,177.907 L112.132,177.907 z M112.132,166.027 L113.973,166.027 L113.973,167.703 L112.132,167.703 z" fill="#373535"/>
      <path d="M115.684,177.906 L115.684,169.052 L117.428,169.052 L117.428,169.944 C118.202,169.286 118.596,168.89 119.663,168.89 C120.637,168.89 121.211,169.595 121.211,170.748 L121.211,177.906 L119.369,177.906 L119.369,171.045 C119.369,170.597 119.104,170.404 118.71,170.404 C118.317,170.404 117.955,170.651 117.525,170.963 L117.525,177.906 z" fill="#373535"/>
      <path d="M122.185,170.566 L122.185,169.052 L123.204,169.052 L123.204,166.668 L125.044,166.668 L125.044,169.052 L126.28,169.052 L126.28,170.566 L125.044,170.566 L125.044,175.667 C125.044,176.131 125.245,176.393 125.671,176.393 L126.28,176.393 L126.28,177.97 C126.035,178.034 125.818,178.071 125.358,178.071 C123.974,178.071 123.204,177.427 123.204,176.077 L123.204,170.566 z" fill="#373535"/>
      <path d="M127.415,169.053 L129.258,169.053 L129.258,177.907 L127.415,177.907 z M127.415,166.027 L129.258,166.027 L129.258,167.703 L127.415,167.703 z" fill="#373535"/>
      <path d="M130.969,177.906 L130.969,169.052 L132.714,169.052 L132.714,169.944 C133.487,169.286 133.883,168.89 134.952,168.89 C135.922,168.89 136.497,169.595 136.497,170.748 L136.497,177.906 L134.657,177.906 L134.657,171.045 C134.657,170.597 134.39,170.404 133.998,170.404 C133.603,170.404 133.24,170.651 132.813,170.963 L132.813,177.906 z" fill="#373535"/>
      <path d="M141.484,172.264 C141.484,170.765 141.286,170.405 140.562,170.405 C139.968,170.405 139.64,170.765 139.64,172.264 C139.64,173.763 139.968,174.121 140.562,174.121 C141.286,174.121 141.484,173.763 141.484,172.264 M142.668,178.728 C142.668,178.266 142.339,178.072 141.105,178.072 C139.872,178.072 139.542,178.266 139.542,178.728 C139.542,179.19 139.872,179.387 141.105,179.387 C142.339,179.387 142.668,179.19 142.668,178.728 M144.315,170.423 C144.213,170.405 144.117,170.405 144.018,170.405 C143.687,170.405 143.393,170.468 143.129,170.683 C143.26,171.144 143.328,171.722 143.328,172.08 C143.328,174.781 142.406,175.639 140.527,175.639 L139.937,175.639 C139.74,175.685 139.577,175.832 139.577,176.045 C139.577,177.249 144.315,175.472 144.315,178.597 C144.315,180.109 142.898,180.702 140.527,180.702 C138.686,180.702 137.601,180.211 137.601,179.29 C137.601,178.597 138.159,178.055 138.801,177.907 L138.801,177.874 C138.306,177.676 137.963,177.329 137.963,176.756 C137.963,176.148 138.589,175.604 139.08,175.322 C138.159,174.683 137.899,174.223 137.899,172.149 C137.899,169.711 138.686,168.891 140.758,168.891 C141.552,168.891 142.224,169.167 142.799,169.843 C143.292,169.121 143.542,168.891 144.315,168.891 z" fill="#373535"/>
      <path d="M145.386,175.964 L147.325,175.964 L147.325,177.909 L145.386,177.909 z" fill="#373535"/>
      <path d="M152.773,172.08 L152.773,171.849 C152.773,170.831 152.408,170.404 151.752,170.404 C151.094,170.404 150.732,170.831 150.732,171.849 L150.732,175.11 C150.732,176.129 151.094,176.556 151.752,176.556 C152.408,176.556 152.773,176.129 152.773,175.11 L152.773,174.55 L154.616,174.55 L154.616,174.779 C154.616,176.724 153.857,178.071 151.752,178.071 C149.645,178.071 148.888,176.724 148.888,174.779 L148.888,172.182 C148.888,170.238 149.645,168.891 151.752,168.891 C153.827,168.891 154.581,170.193 154.616,172.08 z" fill="#373535"/>
      <path d="M159.995,171.849 C159.995,170.831 159.634,170.405 158.974,170.405 C158.316,170.405 157.957,170.831 157.957,171.849 L157.957,175.111 C157.957,176.129 158.316,176.556 158.974,176.556 C159.634,176.556 159.995,176.129 159.995,175.111 z M156.114,172.182 C156.114,170.239 156.871,168.891 158.974,168.891 C161.081,168.891 161.838,170.239 161.838,172.182 L161.838,174.78 C161.838,176.722 161.081,178.07 158.974,178.07 C156.871,178.07 156.114,176.722 156.114,174.78 z" fill="#373535"/>
      <path d="M167.104,177.906 L167.104,171.045 C167.104,170.597 166.824,170.404 166.462,170.404 C166.068,170.404 165.706,170.651 165.277,170.963 L165.277,177.906 L163.434,177.906 L163.434,169.052 L165.178,169.052 L165.178,169.944 C165.951,169.286 166.346,168.89 167.221,168.89 C168.141,168.89 168.438,169.218 168.831,169.944 C169.717,169.084 170.216,168.89 170.887,168.89 C172.04,168.89 172.615,169.595 172.615,170.748 L172.615,177.906 L170.771,177.906 L170.771,171.045 C170.771,170.597 170.479,170.404 170.113,170.404 C169.717,170.404 169.356,170.651 168.947,170.963 L168.947,177.906 z" fill="#373535"/>
    </g>
  </g>
</svg>
