<?xml version="1.0" encoding="UTF-8"?>
<!DOCTYPE svg PUBLIC "-//W3C//DTD SVG 1.1//EN" "http://www.w3.org/Graphics/SVG/1.1/DTD/svg11.dtd">
<svg version="1.1" xmlns="http://www.w3.org/2000/svg" xmlns:xlink="http://www.w3.org/1999/xlink" x="0" y="0" width="789" height="791" viewBox="0, 0, 789, 791">
  <g id="Layer_1">
    <path d="M400.886,197.941 C288.702,197.941 197.759,288.884 197.759,401.067 C197.759,513.25 288.702,604.193 400.886,604.193 C513.068,604.193 604.011,513.25 604.011,401.067 C604.011,288.884 513.068,197.941 400.886,197.941 z M400.886,216.233 C450.256,216.233 496.672,235.459 531.582,270.37 C566.493,305.281 585.719,351.697 585.719,401.067 C585.719,450.438 566.493,496.854 531.582,531.764 C496.672,566.675 450.256,585.901 400.886,585.901 C351.515,585.901 305.099,566.675 270.188,531.764 C235.277,496.854 216.052,450.438 216.052,401.067 C216.052,351.697 235.277,305.281 270.188,270.37 C305.099,235.459 351.515,216.233 400.886,216.233" fill="#D8252D"/>
    <path d="M400.885,619.341 C280.336,619.341 182.611,521.616 182.611,401.067 C182.611,280.518 280.336,182.793 400.885,182.793 C521.435,182.793 619.159,280.518 619.159,401.067 C619.159,521.616 521.435,619.341 400.885,619.341 z M403.003,55.144 C211.955,55.144 57.08,210.019 57.08,401.067 C57.08,592.115 211.955,746.99 403.003,746.99 C594.051,746.99 748.926,592.115 748.926,401.067 C748.926,210.019 594.051,55.144 403.003,55.144" fill="#D8252D"/>
    <path d="M401.214,600.949 C290.821,600.949 201.331,511.459 201.331,401.067 C201.331,290.675 290.821,201.184 401.214,201.184 C511.605,201.184 601.096,290.675 601.096,401.067 C601.096,511.459 511.605,600.949 401.214,600.949 z M403.224,72.72 C221.883,72.72 74.877,219.726 74.877,401.067 C74.877,582.408 221.883,729.413 403.224,729.413 C584.564,729.413 731.57,582.408 731.57,401.067 C731.57,219.726 584.564,72.72 403.224,72.72" fill="#27282B"/>
    <path d="M154.771,416.549 C154.771,424.933 147.975,431.73 139.591,431.73 C131.206,431.73 124.41,424.933 124.41,416.549 C124.41,408.165 131.206,401.368 139.591,401.368 C147.975,401.368 154.771,408.165 154.771,416.549" fill="#D8252D"/>
    <path d="M678.653,416.519 C678.653,424.904 671.857,431.699 663.473,431.699 C655.089,431.699 648.292,424.904 648.292,416.519 C648.292,408.135 655.089,401.338 663.473,401.338 C671.857,401.338 678.653,408.135 678.653,416.519" fill="#D8252D"/>
    <path d="M168.905,213.816 C175.222,218.268 181.26,222.133 187.02,225.412 L181.559,233.645 L164.101,226.439 L160.34,233.553 L210.311,264.555 L218.406,257.681 L222.442,260.36 L207.384,284.941 L203.109,293.676 L198.995,289.271 L202.07,282.592 L150.152,250.377 L145.42,257.128 L159.724,269.287 L154.855,277.916 C148.336,273.863 142.125,270.246 136.224,267.067 L133.638,266.019 L166.767,211.941 L168.905,213.816" fill="#FFFFFE"/>
    <path d="M291.482,134.08 C293.843,141.59 295.66,149.471 296.937,157.724 C298.213,165.978 298.869,174.081 298.904,182.033 C298.94,189.985 298.29,197.255 296.953,203.844 C292.07,205.639 287.328,207.087 282.726,208.184 C278.122,209.282 274.634,209.637 272.26,209.247 L261.087,189.543 C264.431,204.105 265.112,215.988 263.131,225.193 C258.499,226.871 253.922,228.224 249.396,229.253 C244.871,230.281 241.207,230.716 238.403,230.557 L207.962,182.039 L199.07,183.734 L196.588,179.697 L220.321,164.656 L254.074,216.808 L257.417,217.41 C258.095,214.331 258.203,210.205 257.741,205.033 C257.28,199.861 256.374,194.265 255.026,188.247 C253.678,182.228 252.062,176.399 250.176,170.759 L237.965,158.581 L253.786,144.256 L287.816,195.57 L291.201,196.085 C292.607,190.578 293.121,184.729 292.744,178.539 C292.366,172.351 291.386,166.521 289.806,161.051 C288.224,155.581 286.375,150.983 284.259,147.257 L262.326,143.927 L271.39,128.383 L291.482,134.08" fill="#FFFFFE"/>
    <path d="M318.805,119.142 L317.815,114.404 L344.628,108.833 L352.307,106.353 L352.339,112.228 L346.556,114.314 L358.211,172.006 L367.221,173.517 L368.165,178.265 L341.397,183.827 L333.736,186.355 L333.687,180.432 L339.425,178.355 L327.771,120.663 L318.805,119.142" fill="#FFFFFE"/>
    <path d="M391.427,160.254 L396.664,156.212 L416.727,166.458 C419.85,166.458 422.299,165.923 424.076,164.853 C425.853,163.783 426.512,161.72 426.054,158.662 C425.85,157.303 425.352,156.037 424.562,154.866 C423.77,153.693 422.366,152.241 420.35,150.509 C418.333,148.776 415.188,146.262 410.91,142.967 C410.198,142.424 409.54,141.939 408.936,141.514 C408.331,141.09 407.809,140.708 407.367,140.368 C404.505,138.296 402.236,136.538 400.564,135.094 C398.891,133.65 397.419,131.994 396.148,130.125 C394.878,128.257 394.074,126.201 393.738,123.959 C393.637,123.28 393.577,122.583 393.561,121.87 C393.483,117.148 394.919,113.156 397.869,109.895 C400.818,106.634 404.979,104.187 410.35,102.557 C415.72,100.926 421.994,100.111 429.171,100.111 L443.416,113.717 L429.285,124.622 L416.207,109.181 C414.465,109.181 413.101,109.895 412.114,111.322 C411.126,112.748 410.681,114.583 410.776,116.825 C410.771,116.995 410.798,117.267 410.854,117.64 C411.031,118.83 411.525,119.976 412.337,121.08 C413.147,122.184 414.089,123.203 415.16,124.137 C416.23,125.072 417.646,126.201 419.406,127.526 L420.925,128.647 C423.674,130.754 425.636,132.232 426.814,133.081 C431.081,136.309 434.199,138.78 436.168,140.495 C438.137,142.211 439.714,144.02 440.899,145.922 C442.086,147.825 442.877,150.101 443.274,152.751 C444.068,158.05 442.739,162.408 439.287,165.821 C435.835,169.236 431.063,171.716 424.975,173.261 C418.886,174.807 412.193,175.58 404.896,175.58 L391.427,160.254" fill="#FFFFFE"/>
    <path d="M543.343,135.709 C540.128,142.737 537.439,149.383 535.276,155.647 L526.18,151.794 L530.051,133.308 L522.366,130.92 L501.086,185.742 L509.332,192.435 L507.442,196.895 L480.511,186.616 L471.138,184.02 L474.711,179.166 L481.842,180.961 L503.955,124.003 L496.448,120.592 L487.129,136.889 L477.752,133.692 C480.536,126.537 482.948,119.767 484.987,113.382 L485.541,110.647 L544.791,133.262 L543.343,135.709" fill="#FFFFFE"/>
    <path d="M583.191,231.889 L581.813,236.363 L556.524,234.914 L545.662,224.61 C542.569,218.729 541.114,213.06 541.297,207.606 C541.479,202.15 543.05,196.946 546.012,191.992 C550.576,184.356 556.559,178.806 563.957,175.343 C571.355,171.88 579.124,170.677 587.264,171.733 C595.401,172.79 602.831,175.946 609.551,181.2 L611.924,200.756 L594.083,200.215 L593.714,179.998 C590.063,179.681 586.074,180.812 581.747,183.391 C577.42,185.97 573.396,189.358 569.676,193.556 L587.106,205.893 L580.862,212.173 L566.035,198.084 C565.254,199.157 564.468,200.357 563.675,201.684 C560.748,206.578 559.267,211.054 559.229,215.112 L561.252,224.488 L583.191,231.889" fill="#FFFFFE"/>
    <path d="M645.074,280.409 C647.671,278.549 650.13,276.531 652.451,274.355 C654.773,272.18 656.564,270.275 657.827,268.641 L659.736,258.724 L655.221,252.808 L604.623,278.322 L606.828,286.77 C608.735,287.887 611.389,288.654 614.787,289.069 C618.186,289.483 621.949,289.343 626.079,288.649 C630.207,287.955 634.244,286.616 638.189,284.63 C640.377,283.536 642.672,282.131 645.074,280.409 z M657.091,296.732 C655.61,297.793 653.901,298.816 651.964,299.803 C644.841,303.408 637.703,304.952 630.55,304.434 C623.396,303.915 617.107,301.991 611.683,298.662 C606.259,295.334 602.418,291.464 600.161,287.053 L588.958,265.161 L584.49,258.444 L590.188,256.826 L593.712,261.81 L646.254,235.286 L645.345,226.238 L649.652,224.03 L653.551,231.647 L671.077,262.764 C671.888,278.146 667.227,289.47 657.091,296.732" fill="#FFFFFE"/>
    <path d="M258.002,586.289 L260.988,582.479 L282.526,599.393 L289.371,603.666 L284.898,607.476 L279.578,604.399 L242.972,650.489 L247.622,658.351 L244.601,662.134 L223.098,645.248 L216.228,641.019 L220.725,637.164 L226.012,640.214 L262.617,594.125 L258.002,586.289" fill="#FFFFFE"/>
    <path d="M352.966,634.29 C349.763,641.324 347.085,647.974 344.932,654.242 L335.829,650.404 L339.67,631.911 L331.98,629.536 L310.791,684.393 L319.048,691.072 L317.165,695.535 L290.217,685.3 L280.84,682.72 L284.405,677.86 L291.539,679.643 L313.559,622.649 L306.047,619.25 L296.754,635.563 L287.371,632.38 C290.145,625.221 292.546,618.448 294.574,612.059 L295.124,609.324 L354.41,631.841 L352.966,634.29" fill="#FFFFFE"/>
    <path d="M432.82,695.817 C432.071,689.308 431.821,680.869 432.071,670.5 C432.247,663.185 432.991,652.781 434.01,644.652 C434.789,638.434 435.537,635.361 433.45,634.514 C429.391,632.867 424.409,630.937 419.865,630.077 C414.983,628.923 414.055,648.255 414.055,648.255 C414.055,648.255 412.711,665.438 412.592,676.042 C412.592,676.118 412.592,676.191 412.591,676.268 C410.531,670.11 407.382,661.896 404.982,655.957 C402.299,649.316 396.188,635.019 393.412,630.612 L365.223,631.182 L365.352,636.987 L373.886,640.127 L374.966,706.059 L394.16,702.562 L393.913,676.471 L393.633,650.324 C395.836,653.432 398.132,657.311 400.521,661.976 C403.641,668.063 406.421,674.707 408.862,681.909 C411.303,689.111 412.944,695.8 413.775,702.318 L416.665,705.215 L440.904,700.291 L440.838,695.4 L432.82,695.817" fill="#FFFFFE"/>
    <path d="M513.032,665.081 L516.003,668.699 L500.84,688.991 L486.252,692.363 C479.641,691.698 474.111,689.783 469.662,686.62 C465.213,683.458 461.74,679.276 459.243,674.073 C455.395,666.052 454.065,658 455.261,649.919 C456.455,641.838 459.738,634.696 465.111,628.491 C470.483,622.286 477.215,617.832 485.305,615.128 L502.923,623.94 L492.627,638.52 L475.563,627.672 C473.284,630.541 472.026,634.492 471.789,639.524 C471.553,644.556 472.158,649.782 473.606,655.2 L493.514,647.471 L495.304,656.144 L475.373,660.735 C475.837,661.978 476.404,663.296 477.073,664.691 C479.54,669.831 482.455,673.537 485.817,675.808 L494.754,679.294 L513.032,665.081" fill="#FFFFFE"/>
    <path d="M251.057,574.916 L219.068,538.261 L168.051,581.708 L163.772,578.066 L158.321,580.637 L164.19,586.05 L183.687,608.703 L187.47,605.678 L182.706,595.066 L199.898,580.435 L211.363,596.333 L218.563,591.186 L204.548,576.498 L227.495,556.957 L237.813,568.166 L225.618,582.587 L231.788,590.303 C236.67,585.821 242.195,581.252 248.365,576.598 L251.057,574.916" fill="#FFFFFE"/>
    <path d="M543.335,655.597 L545.23,649.259 L567.503,645.874 C570.039,644.052 571.716,642.189 572.534,640.283 C573.353,638.377 572.685,636.317 570.528,634.101 C569.57,633.116 568.427,632.378 567.102,631.888 C565.774,631.398 563.787,631.037 561.139,630.807 C558.49,630.576 554.469,630.37 549.072,630.19 C548.177,630.164 547.359,630.155 546.621,630.162 C545.883,630.17 545.235,630.164 544.679,630.146 C541.145,630.133 538.277,630.029 536.076,629.831 C533.875,629.636 531.713,629.149 529.591,628.373 C527.47,627.597 525.617,626.397 524.036,624.772 C523.558,624.279 523.103,623.748 522.673,623.178 C519.855,619.389 518.692,615.309 519.186,610.939 C519.678,606.57 521.629,602.156 525.039,597.698 C528.449,593.24 533.069,588.917 538.898,584.73 L558.405,587.468 L553.292,604.57 L533.661,599.66 C532.247,600.677 531.555,602.052 531.586,603.786 C531.616,605.522 532.325,607.272 533.711,609.036 C533.807,609.178 533.985,609.383 534.249,609.654 C535.088,610.516 536.158,611.158 537.461,611.581 C538.764,612.005 540.123,612.284 541.537,612.417 C542.952,612.552 544.761,612.644 546.964,612.693 L548.851,612.717 C552.313,612.824 554.769,612.879 556.221,612.881 C561.569,613.013 565.544,613.2 568.144,613.446 C570.743,613.691 573.079,614.239 575.152,615.092 C577.226,615.946 579.196,617.332 581.064,619.252 C584.802,623.093 586.265,627.408 585.453,632.194 C584.642,636.981 582.214,641.779 578.17,646.586 C574.127,651.395 569.143,655.927 563.217,660.185 L543.335,655.597" fill="#FFFFFE"/>
    <path d="M605.388,610.516 L605.871,603.918 L626.889,595.809 C628.972,593.483 630.207,591.301 630.596,589.264 C630.983,587.227 629.887,585.359 627.303,583.659 C626.155,582.906 624.88,582.432 623.479,582.239 C622.078,582.046 620.061,582.122 617.425,582.469 C614.788,582.815 610.816,583.482 605.509,584.469 C604.629,584.637 603.829,584.804 603.109,584.971 C602.39,585.138 601.757,585.273 601.209,585.374 C597.756,586.124 594.933,586.641 592.741,586.923 C590.55,587.206 588.334,587.198 586.095,586.898 C583.855,586.598 581.788,585.824 579.894,584.579 C579.319,584.201 578.761,583.782 578.219,583.318 C574.649,580.225 572.634,576.491 572.173,572.118 C571.711,567.745 572.664,563.015 575.033,557.926 C577.401,552.838 580.979,547.62 585.768,542.275 L605.407,540.741 L604.103,558.542 L583.875,557.983 C582.713,559.281 582.334,560.773 582.739,562.459 C583.143,564.148 584.212,565.703 585.946,567.128 C586.07,567.245 586.289,567.407 586.604,567.615 C587.61,568.276 588.794,568.672 590.157,568.804 C591.521,568.937 592.907,568.916 594.317,568.741 C595.729,568.568 597.514,568.267 599.676,567.839 L601.523,567.455 C604.927,566.814 607.337,566.338 608.755,566.026 C614.007,565.001 617.928,564.327 620.519,564.005 C623.11,563.684 625.51,563.715 627.719,564.101 C629.927,564.488 632.15,565.416 634.389,566.888 C638.866,569.832 641.226,573.73 641.465,578.578 C641.706,583.428 640.37,588.637 637.459,594.203 C634.548,599.771 630.658,605.272 625.79,610.707 L605.388,610.516" fill="#FFFFFE"/>
    <path d="M401.53,617.616 C401.291,617.624 400.998,617.628 400.652,617.628 C386.287,617.628 371.778,609.803 369.177,592.487 C365.548,589.187 362.94,584.668 362.629,579.376 C359.794,575.937 357.377,570.508 357.377,561.991 C357.377,556.822 349.315,539.4 339.8,523.306 C332.485,528.128 322.802,533.023 313.639,533.023 C309.547,533.023 305.796,532.087 302.486,530.245 C296.189,526.738 294.067,521.999 293.396,518.643 C293.335,518.335 293.282,518.03 293.24,517.727 C287.991,521.251 281.693,523.145 274.996,523.145 C259.92,523.145 245.276,513.647 240.174,500.562 C235.256,487.946 239.411,474.296 251.573,463.113 C259.147,456.148 267.721,454.44 273.979,453.194 C276.784,452.634 279.684,452.057 280.935,451.241 C282.042,450.518 282.53,449.78 283.778,447.746 C285.2,445.434 287.107,442.33 290.585,439.592 C290.882,438.234 291.354,436.784 292.052,435.259 C290.966,431.567 290.888,426.604 293.206,420.071 C294.623,416.077 293.742,407.653 269.846,380.692 C242.675,350.038 256.206,313.28 261.316,305.115 C264.884,299.414 272.716,295.279 279.939,295.279 C281.549,295.279 283.106,295.485 284.57,295.891 C285.563,296.168 286.686,296.613 287.864,297.229 C289.193,296.154 290.774,295.088 292.625,294.155 C290.185,289.697 285.552,283.412 276.764,275.811 L260.188,261.474 L281.646,257.024 C282.334,256.882 284.869,256.416 288.666,256.416 C293.448,256.416 302.099,257.244 311.232,262.154 C313.29,249.841 319.346,235.742 333.896,223.15 L381.711,190.175 C390.501,186.405 400.444,184.506 411.468,184.506 L427.478,186.236 L416.839,202.021 C426.057,201.678 436.538,209.459 442.715,217.26 C448.745,214.507 456.964,211.776 465.834,211.776 C475.857,211.776 489.867,215.303 499.685,232.113 L519.037,265.242 L496.178,252.982 C499.909,259.07 502.974,267.139 504.392,277.826 C507.032,277.22 509.923,276.843 513.031,276.843 C518.791,276.843 524.504,278.149 530.012,280.726 L547.421,288.867 L533.717,298.012 C537.062,299.762 539.946,302.239 541.746,305.115 C546.855,313.285 560.378,350.049 533.217,380.692 C509.319,407.651 508.439,416.077 509.855,420.071 C512.175,426.607 512.096,431.571 511.008,435.265 C511.705,436.786 512.177,438.231 512.475,439.586 C515.949,442.322 517.861,445.431 519.284,447.747 C520.532,449.78 521.021,450.518 522.129,451.241 C523.379,452.057 526.278,452.634 529.083,453.194 C535.342,454.44 543.913,456.148 551.487,463.113 C563.653,474.297 567.809,487.949 562.889,500.565 C557.786,513.65 543.144,523.145 528.069,523.145 C528.068,523.145 528.066,523.145 528.065,523.145 C521.367,523.143 515.07,521.249 509.821,517.726 C509.778,518.03 509.726,518.335 509.664,518.643 C508.993,521.999 506.872,526.738 500.574,530.245 C497.266,532.087 493.514,533.023 489.422,533.023 C480.261,533.023 470.576,528.126 463.262,523.306 C453.75,539.391 445.686,556.82 445.686,561.991 C445.686,570.506 443.271,575.936 440.434,579.376 C440.122,584.664 437.515,589.181 433.883,592.484 C431.27,609.809 416.768,617.628 402.408,617.628 C402.063,617.628 401.77,617.624 401.53,617.616" fill="#FFFFFE"/>
    <path d="M532.323,488.323 C531.077,492.55 526.735,495.159 522.625,494.15 C518.515,493.14 516.193,488.894 517.438,484.666 C518.685,480.439 523.026,477.83 527.137,478.84 C531.247,479.85 533.569,484.096 532.323,488.323 z M394.414,243.597 C393.251,232.635 399.19,230.745 399.19,230.745 C399.19,230.745 393.147,228.382 387.661,235.47 C387.281,231.028 391.388,223.374 391.388,223.374 C391.388,223.374 408.243,225.58 410.226,242.274 C412.089,257.961 395.975,258.296 394.414,243.597 z M280.45,494.15 C276.34,495.159 271.998,492.55 270.752,488.323 C269.506,484.096 271.828,479.85 275.938,478.84 C280.048,477.83 284.391,480.439 285.636,484.666 C286.882,488.894 284.56,493.14 280.45,494.15 z M544.162,470.963 C535.046,462.581 523.461,464.915 516.215,460.191 C509.124,455.566 510.361,449.176 502.071,445.894 C501.784,445.781 501.641,445.491 501.745,445.222 C502.195,444.069 502.813,440.781 498.521,435.551 C498.317,435.304 498.389,434.957 498.672,434.787 C499.898,434.049 502.46,431.48 499.654,423.572 C496.083,413.507 500.741,400.892 525.116,373.393 C549.492,345.893 534.433,313.716 532.569,310.739 C530.706,307.762 524.961,305.211 521.391,306.203 C517.828,307.193 505.458,316.506 522.665,331.47 C522.745,331.539 522.804,331.628 522.829,331.727 C523.281,333.458 526.927,349.835 507.411,363.795 C506.931,364.139 506.265,363.654 506.525,363.149 C509.439,357.504 516.239,341.271 504.873,330.252 C504.536,329.926 503.933,330.091 503.863,330.534 C503.557,332.49 502.621,336.752 500.007,340.545 C495.001,310.719 525.427,290.413 525.427,290.413 C507.728,282.136 494.376,294.438 494.376,294.438 C495.617,248.511 469.224,245.109 469.224,245.109 C472.652,250.484 476.365,276.294 463.945,275.443 C451.524,274.593 454.939,260.418 454.939,260.418 C463.324,223.846 490.339,237.454 490.339,237.454 C472.95,207.687 439.104,231.501 439.104,231.501 C424.509,203.151 396.252,211.372 396.252,211.372 C402.463,199.276 411.468,195.213 411.468,195.213 C345.068,195.213 349.099,273.742 349.099,273.742 C330.202,249.078 340.98,231.218 340.98,231.218 C311.171,257.016 323.901,290.413 323.901,290.413 C308.997,262.291 283.845,267.505 283.845,267.505 C307.444,287.917 306.144,301.809 306.144,301.809 C295.527,301.809 291.608,308.896 291.608,308.896 C311.714,319.91 305.121,342.806 305.07,342.982 C300.889,338.769 299.574,332.926 299.199,330.534 C299.129,330.091 298.526,329.926 298.189,330.252 C286.822,341.271 293.622,357.504 296.537,363.149 C296.798,363.654 296.132,364.139 295.65,363.795 C276.136,349.835 279.781,333.458 280.233,331.727 C280.259,331.628 280.317,331.539 280.397,331.47 C297.604,316.506 285.234,307.193 281.672,306.203 C278.101,305.211 272.356,307.762 270.493,310.739 C268.63,313.716 253.569,345.893 277.945,373.393 C302.321,400.892 306.979,413.507 303.408,423.572 C300.602,431.48 303.164,434.049 304.391,434.787 C304.674,434.957 304.745,435.304 304.542,435.551 C300.25,440.781 300.866,444.069 301.316,445.222 C301.422,445.491 301.277,445.781 300.991,445.894 C292.701,449.176 293.938,455.566 286.847,460.191 C279.602,464.915 268.016,462.581 258.9,470.963 C229.919,497.613 271.942,524.639 290.299,506.062 C307.003,489.157 315.474,489.457 317.576,489.899 C317.879,489.962 318.082,490.225 318.032,490.505 C315.761,503.161 295.685,513.947 307.755,520.67 C318.877,526.866 338.753,510.808 342.218,507.887 C342.49,507.658 342.921,507.714 343.11,508.005 C351.145,520.293 368.202,550.335 368.202,561.872 C368.202,571.447 372.21,573.829 373.677,574.38 C373.965,574.489 374.105,574.778 374.01,575.049 C371.572,581.94 377.841,585.567 379.296,586.302 C379.479,586.394 379.588,586.574 379.589,586.765 C379.657,608.13 401.531,606.665 401.531,606.665 C401.531,606.665 423.405,608.13 423.473,586.765 C423.474,586.574 423.583,586.394 423.767,586.302 C425.221,585.567 431.489,581.94 429.052,575.049 C428.956,574.778 429.097,574.489 429.386,574.38 C430.852,573.829 434.859,571.447 434.859,561.872 C434.859,550.335 451.917,520.293 459.951,508.005 C460.142,507.714 460.572,507.658 460.845,507.887 C464.31,510.808 484.186,526.866 495.307,520.67 C507.377,513.947 487.302,503.161 485.03,490.505 C484.979,490.225 485.184,489.962 485.486,489.899 C487.589,489.457 496.059,489.157 512.764,506.062 C531.12,524.639 573.144,497.613 544.162,470.963" fill="#1B1A19"/>
    <path d="M444.692,388.843 C465.554,367.53 481.052,360.906 486.422,359.107 C486.765,358.991 487.005,359.418 486.707,359.613 C479.989,363.998 477.607,367.865 477.607,367.865 C480.402,370.415 481.955,373.534 481.955,373.534 C517.043,360.777 505.554,337.813 505.554,337.813 C504.622,351.989 486.302,352.272 486.302,352.272 C497.17,343.483 488.165,334.695 488.165,334.695 C488.165,334.695 477.918,351.138 468.603,348.019 C459.287,344.901 462.393,332.993 462.393,332.993 C451.835,340.081 448.108,365.879 448.108,365.879 C437.786,365.03 432.583,352.272 432.583,352.272 C423.268,363.612 424.819,376.653 424.819,376.653 C416.125,376.085 413.952,362.195 413.952,362.195 C398.736,387.142 418.609,415.492 444.692,388.843" fill="#D8252D"/>
    <path d="M401.531,386.888 C401.261,387.506 394.498,402.723 384.155,402.167 C384.155,402.167 386.963,414.925 377.02,425.414 C367.077,435.904 377.322,459.997 401.537,458.867 C425.753,459.997 435.997,435.904 426.056,425.414 C416.112,414.925 418.92,402.167 418.92,402.167 C408.576,402.723 401.813,387.505 401.544,386.888 L401.544,386.859 C401.544,386.859 401.539,386.87 401.537,386.873 C401.536,386.87 401.531,386.859 401.531,386.859 L401.531,386.888" fill="#D8252D"/>
    <path d="M432.79,440.346 C432.79,440.346 443.555,440.346 439.621,428.817 C435.959,418.083 428.013,422.882 428.013,422.882 C436.899,429.612 432.79,440.346 432.79,440.346" fill="#D8252D"/>
    <path d="M496.128,474.077 C494.108,473.541 492.458,473.084 489.407,473.326 C482.266,473.893 477.918,478.571 477.918,478.571 C478.073,481.406 479.964,484.241 479.964,484.241 C494.221,476.303 492.726,480.438 499.499,481.264 C509.957,482.539 511.299,471.199 509.125,464.254 C506.951,457.308 504.157,446.96 492.202,446.819 C480.247,446.677 480.324,452.56 473.338,452.63 C473.338,452.63 474.23,453.339 476.172,453.446 C474.27,454.757 471.94,453.233 470.726,452.001 C469.387,450.484 468.137,449.131 464.721,449.229 C459.753,449.37 458.006,455.501 451.641,455.36 C445.275,455.217 446.554,451.463 441.353,450.896 C431.894,449.865 428.313,469.286 420.938,471.767 C416.331,473.317 415.028,469.945 410.681,468.386 C406.365,466.838 401.607,467.225 401.537,467.231 C401.468,467.225 396.709,466.838 392.394,468.386 C388.047,469.945 386.743,473.317 382.137,471.767 C374.762,469.286 371.182,449.865 361.723,450.896 C356.521,451.463 357.8,455.217 351.435,455.36 C345.068,455.501 343.322,449.37 338.354,449.229 C334.938,449.131 333.688,450.484 332.35,452.001 C331.134,453.233 328.806,454.757 326.903,453.446 C328.844,453.339 329.737,452.63 329.737,452.63 C322.75,452.56 322.828,446.677 310.873,446.819 C298.918,446.96 296.124,457.308 293.95,464.254 C291.776,471.199 293.117,482.539 303.576,481.264 C310.349,480.438 308.854,476.303 323.111,484.241 C323.111,484.241 325.002,481.406 325.157,478.571 C325.157,478.571 320.81,473.893 313.668,473.326 C310.617,473.084 308.967,473.541 306.946,474.077 C305.575,474.443 300.187,477.342 297.313,473.515 C300.626,474.885 303.46,473.572 303.46,473.572 C302.658,473.006 301.461,472.529 300.394,470.397 C295.969,461.561 304.468,450.981 310.407,450.646 C323.111,449.929 323.111,460.001 328.106,460.285 C335.087,460.681 337.422,457.096 340.993,456.529 C340.993,456.529 339.324,454.651 336.763,454.261 C336.763,454.261 337.771,452.312 348.29,458.907 C358.484,465.297 362.66,456.336 362.66,456.336 C362.66,456.336 361.539,455.277 358.227,455.536 C358.227,455.536 364.474,451.193 369.716,461.844 C373.616,469.77 376.687,474.935 382.143,475.644 C387.595,476.352 391.604,470.072 401.531,470.774 L401.531,470.775 C401.533,470.775 401.535,470.775 401.537,470.774 C401.54,470.775 401.542,470.775 401.544,470.775 L401.544,470.774 C411.471,470.072 415.48,476.352 420.933,475.644 C426.388,474.935 429.458,469.77 433.359,461.844 C438.602,451.193 444.848,455.536 444.848,455.536 C441.536,455.277 440.415,456.336 440.415,456.336 C440.415,456.336 444.59,465.297 454.784,458.907 C465.304,452.312 466.313,454.261 466.313,454.261 C463.751,454.651 462.082,456.529 462.082,456.529 C465.652,457.096 467.988,460.681 474.968,460.285 C479.964,460.001 479.964,449.929 492.668,450.646 C498.607,450.981 507.106,461.561 502.682,470.397 C501.614,472.529 500.417,473.006 499.615,473.572 C499.615,473.572 502.449,474.885 505.761,473.515 C502.889,477.342 497.5,474.443 496.128,474.077" fill="#D8252D"/>
    <path d="M428.856,476.445 C431.134,484.241 428.856,487.595 431.134,487.974 C437.127,488.968 441.691,486.839 441.691,486.839 C453.698,478.524 439.781,460.392 439.781,460.392 C435.895,459.718 433.101,472.759 428.856,476.445" fill="#FFFFFE"/>
    <path d="M426.056,477.578 C426.056,477.578 421.404,478.524 417.264,477.956 C413.124,477.39 406.913,472.286 404.429,474.232 C401.945,476.176 403.188,488.273 403.188,488.273 C404.843,494.619 409.604,494.4 420.162,492.887 C430.72,491.375 426.056,477.578 426.056,477.578" fill="#FFFFFE"/>
    <path d="M473.571,464.154 C469.224,464.526 460.529,460.191 460.529,460.191 C450.386,465.861 445.624,463.782 445.624,463.782 C454.939,480.035 445.624,488.273 445.624,488.273 C467.774,518.403 503.588,525.396 489.925,508.007 C470.762,483.619 473.571,464.154 473.571,464.154" fill="#FFFFFE"/>
    <path d="M424.147,562.911 C425.647,563.29 427.082,563.196 427.082,563.196 C427.082,563.196 424.819,566.455 416.85,563.574 C404.74,559.194 401.673,559.944 401.537,559.981 C401.402,559.944 398.335,559.194 386.226,563.574 C378.255,566.455 375.993,563.196 375.993,563.196 C375.993,563.196 377.427,563.29 378.928,562.911 C378.928,562.911 379.109,552.918 350.065,501.393 L345.858,505.362 C345.858,505.362 367.595,538.815 372.148,558.282 C373.129,581.208 389.577,564.342 401.531,565.085 C401.533,565.085 401.535,565.085 401.537,565.085 C401.54,565.085 401.542,565.085 401.544,565.085 C413.498,564.342 429.946,581.208 430.927,558.282 C435.48,538.815 457.217,505.362 457.217,505.362 L453.01,501.393 C423.966,552.918 424.147,562.911 424.147,562.911" fill="#D8252D"/>
    <path d="M407.12,569.574 C404.059,568.177 401.606,568.844 401.537,568.864 C401.469,568.844 399.016,568.177 395.955,569.574 C392.85,570.991 390.093,578.363 379.982,574.11 C379.982,574.11 377.53,581.529 385.087,582.237 C390.765,582.77 391.659,576.661 399.37,579.308 C399.37,579.308 396.468,578.824 392.504,583.338 C389.47,586.791 385.397,584.093 384.311,587.765 C382.777,592.945 388.346,601.89 401.537,601.043 C414.729,601.89 420.298,592.945 418.765,587.765 C417.678,584.093 413.605,586.791 410.571,583.338 C406.607,578.824 403.705,579.308 403.705,579.308 C411.416,576.661 412.311,582.77 417.988,582.237 C425.544,581.529 423.093,574.11 423.093,574.11 C412.981,578.363 410.226,570.991 407.12,569.574" fill="#D8252D"/>
    <path d="M500.896,368.336 C500.896,368.336 494.396,373.51 483.632,377.29 C483.632,377.29 486.612,387.615 482.473,396.309 C482.473,396.309 500.838,389.462 500.896,368.336" fill="#D8252D"/>
    <path d="M524.651,327.749 C526.514,323.922 524.909,317.307 524.909,317.307 C537.185,351.107 505.798,366.287 504.777,371.692 C500.896,392.245 484.543,399.578 484.543,399.578 C489.95,407.696 487.44,411.334 487.44,411.334 C485.163,403.868 480.945,401.033 480.945,401.033 C478.917,405.001 475.201,409.042 475.201,409.042 C493.159,415.799 491.685,433.353 491.685,433.353 C500.948,431.935 491.892,422.438 493.444,410.389 C494.996,398.34 509.746,384.449 526.048,363.328 C542.351,342.207 533.346,308.613 522.943,311.023 C512.541,313.432 522.788,331.576 524.651,327.749" fill="#D8252D"/>
    <path d="M511.543,461.699 C511.513,461.653 511.484,461.607 511.454,461.561 C511.454,461.561 511.481,461.61 511.543,461.699" fill="#D8252D"/>
    <path d="M535.104,487.9 C533.366,493.796 527.556,497.494 522.126,496.161 C516.696,494.827 513.703,488.965 515.44,483.069 C517.179,477.172 522.989,473.474 528.419,474.808 C533.849,476.141 536.842,482.003 535.104,487.9 z M531.83,469.637 C516.286,467.659 512.159,462.593 511.543,461.699 C519.299,473.465 510.172,491.165 499.81,485.8 C489.407,480.413 485.37,486.509 485.37,486.509 C495.617,485.942 498.412,488.777 510.833,499.408 C523.254,510.039 536.916,506.495 543.438,499.408 C549.958,492.321 546.821,471.545 531.83,469.637" fill="#D8252D"/>
    <path d="M321.12,373.534 C321.12,373.534 322.673,370.415 325.468,367.865 C325.468,367.865 323.086,363.998 316.367,359.613 C316.07,359.418 316.31,358.991 316.653,359.107 C322.023,360.906 337.521,367.53 358.382,388.843 C384.466,415.492 404.339,387.142 389.123,362.195 C389.123,362.195 386.949,376.085 378.255,376.653 C378.255,376.653 379.808,363.612 370.492,352.272 C370.492,352.272 365.289,365.03 354.967,365.879 C354.967,365.879 351.24,340.081 340.683,332.993 C340.683,332.993 343.788,344.901 334.473,348.019 C325.157,351.138 314.91,334.695 314.91,334.695 C314.91,334.695 305.905,343.483 316.772,352.272 C316.772,352.272 298.452,351.989 297.521,337.813 C297.521,337.813 286.032,360.777 321.12,373.534" fill="#D8252D"/>
    <path d="M375.062,422.882 C375.062,422.882 367.115,418.083 363.454,428.817 C359.521,440.346 370.285,440.346 370.285,440.346 C370.285,440.346 366.176,429.612 375.062,422.882" fill="#D8252D"/>
    <path d="M311.391,435.904 C311.391,435.904 305.845,435.907 305.068,444.978 C305.068,444.978 309.941,442.283 317.238,444.551 C324.536,446.819 323.915,449.654 328.106,450.079 C332.299,450.504 331.988,446.677 337.888,446.394 C343.788,446.11 345.807,453.056 351.085,452.773 C358.066,452.398 357.03,446.949 361.332,447.528 C376.082,449.512 376.714,467.101 383.224,468.649 C387.395,469.64 387.396,464.683 401.531,465.671 C401.533,465.671 401.535,465.671 401.537,465.671 C401.54,465.671 401.542,465.671 401.544,465.671 C415.679,464.683 415.68,469.64 419.852,468.649 C426.36,467.101 426.993,449.512 441.743,447.528 C446.044,446.949 445.009,452.398 451.99,452.773 C457.269,453.056 459.287,446.11 465.187,446.394 C471.087,446.677 470.776,450.504 474.968,450.079 C479.16,449.654 478.539,446.819 485.836,444.551 C493.134,442.283 498.006,444.978 498.006,444.978 C497.229,435.907 491.685,435.904 491.685,435.904 C490.339,441.432 478.746,442.991 478.746,442.991 C478.746,442.991 496.756,433.731 481.23,417.477 C469.845,405.759 441.484,413.507 438.793,419.556 C454.732,443.747 431.134,445.449 431.134,445.449 C431.134,445.449 429.271,452.82 422.439,458.907 C415.676,464.932 401.819,463.62 401.544,463.594 L401.544,463.592 C401.544,463.592 401.538,463.593 401.537,463.593 L401.531,463.592 L401.531,463.594 C401.256,463.62 387.399,464.932 380.636,458.907 C373.805,452.82 371.941,445.449 371.941,445.449 C371.941,445.449 348.342,443.747 364.282,419.556 C361.591,413.507 333.23,405.759 321.845,417.477 C306.318,433.731 324.329,442.991 324.329,442.991 C324.329,442.991 312.736,441.432 311.391,435.904" fill="#D8252D"/>
    <path d="M363.294,460.392 C363.294,460.392 349.377,478.524 361.384,486.839 C361.384,486.839 365.947,488.968 371.941,487.974 C374.219,487.595 371.941,484.241 374.219,476.445 C369.975,472.759 367.18,459.718 363.294,460.392" fill="#FFFFFE"/>
    <path d="M399.888,488.273 C399.888,488.273 401.13,476.176 398.646,474.232 C396.162,472.286 389.951,477.39 385.812,477.956 C381.671,478.524 377.02,477.578 377.02,477.578 C377.02,477.578 372.355,491.375 382.913,492.887 C393.471,494.4 398.231,494.619 399.888,488.273" fill="#FFFFFE"/>
    <path d="M357.45,488.273 C357.45,488.273 348.135,480.035 357.45,463.782 C357.45,463.782 352.689,465.861 342.546,460.191 C342.546,460.191 333.852,464.526 329.504,464.154 C329.504,464.154 332.313,483.619 313.15,508.007 C299.487,525.396 335.301,518.403 357.45,488.273" fill="#FFFFFE"/>
    <path d="M387.27,557.725 C387.329,557.6 387.505,557.593 387.587,557.707 C388.791,559.382 393.854,558.033 394.831,557.048 C394.901,556.978 395.023,556.973 395.09,557.046 C395.532,557.531 396.464,557.891 398.206,557.95 C400.048,558.014 401.049,557.716 401.537,557.24 C402.025,557.716 403.027,558.014 404.869,557.95 C406.61,557.891 407.543,557.531 407.985,557.046 C408.052,556.973 408.174,556.978 408.243,557.048 C409.221,558.033 414.284,559.382 415.488,557.707 C415.57,557.593 415.746,557.6 415.806,557.725 C416.942,560.124 423.093,561.202 423.093,554.854 C423.093,546.761 421.687,546.079 421.45,546.023 C421.43,546.017 421.411,546.017 421.39,546.017 C419.296,546.074 416.478,552.701 415.782,555.826 C415.745,555.994 415.506,556.032 415.408,555.886 C414.566,554.631 412.035,551.049 410.853,551.428 C410.844,551.431 410.839,551.432 410.831,551.434 C409.363,551.906 408.636,553.56 408.309,554.96 C408.272,555.116 408.049,555.134 407.972,554.992 C407.6,554.304 407.065,553.769 407.065,553.769 C405.123,550.792 405.292,553.91 404.024,553.273 C402.758,552.635 402.504,553.273 402.504,553.273 C402.317,553.609 401.869,554.221 401.537,554.895 C401.206,554.221 400.758,553.609 400.571,553.273 C400.571,553.273 400.317,552.635 399.051,553.273 C397.783,553.91 397.952,550.792 396.01,553.769 C396.01,553.769 395.476,554.304 395.104,554.992 C395.026,555.134 394.802,555.116 394.766,554.96 C394.439,553.56 393.712,551.906 392.244,551.434 C392.235,551.432 392.23,551.431 392.223,551.428 C391.04,551.049 388.509,554.631 387.667,555.886 C387.568,556.032 387.33,555.994 387.293,555.826 C386.598,552.701 383.779,546.074 381.686,546.017 C381.664,546.017 381.646,546.017 381.625,546.023 C381.389,546.079 379.981,546.761 379.982,554.854 C379.982,561.202 386.133,560.124 387.27,557.725" fill="#FFFFFE"/>
    <path d="M302.179,368.336 C302.236,389.462 320.603,396.309 320.603,396.309 C316.462,387.615 319.442,377.29 319.442,377.29 C308.678,373.51 302.179,368.336 302.179,368.336" fill="#D8252D"/>
    <path d="M309.631,410.389 C311.184,422.438 302.127,431.935 311.391,433.353 C311.391,433.353 309.916,415.799 327.874,409.042 C327.874,409.042 324.158,405.001 322.129,401.033 C322.129,401.033 317.911,403.868 315.635,411.334 C315.635,411.334 313.124,407.696 318.532,399.578 C318.532,399.578 302.179,392.245 298.297,371.692 C297.276,366.287 265.891,351.107 278.165,317.307 C278.165,317.307 276.561,323.922 278.424,327.749 C280.287,331.576 290.534,313.432 280.132,311.023 C269.729,308.613 260.725,342.207 277.026,363.328 C293.329,384.449 308.078,398.34 309.631,410.389" fill="#D8252D"/>
    <path d="M291.532,461.699 C291.593,461.61 291.621,461.561 291.621,461.561 C291.591,461.607 291.563,461.653 291.532,461.699" fill="#D8252D"/>
    <path d="M280.949,496.161 C275.52,497.494 269.709,493.796 267.971,487.9 C266.233,482.003 269.226,476.141 274.656,474.808 C280.086,473.474 285.896,477.172 287.634,483.069 C289.372,488.965 286.379,494.827 280.949,496.161 z M317.704,486.509 C317.704,486.509 313.668,480.413 303.266,485.8 C292.903,491.165 283.776,473.465 291.532,461.699 C290.916,462.593 286.789,467.659 271.245,469.637 C256.253,471.545 253.117,492.321 259.638,499.408 C266.158,506.495 279.821,510.039 292.242,499.408 C304.663,488.777 307.457,485.942 317.704,486.509" fill="#D8252D"/>
    <path d="M351.551,387.709 C334.828,368.715 329.193,371.266 329.193,371.266 C325.629,371.832 312.574,386.525 330.137,408.291 C330.192,408.36 330.281,408.398 330.373,408.385 C331.162,408.282 335.056,407.8 338.974,407.832 C339.138,407.833 339.259,407.701 339.229,407.554 C339.104,406.968 339.013,406.362 338.957,405.741 C338.436,399.935 341.211,394.99 345.155,394.694 C345.681,394.655 346.199,394.704 346.706,394.828 C346.954,394.89 346.975,395.198 346.734,395.281 C345.35,395.759 344.266,397.146 344.1,398.863 C343.883,401.095 345.297,403.078 347.266,403.192 C349.707,403.331 350.749,400.578 351.074,399.177 C351.131,398.935 351.492,398.895 351.612,399.117 C352.467,400.694 353.054,402.594 353.24,404.671 C353.387,406.297 353.269,407.851 352.943,409.259 C352.915,409.379 352.993,409.495 353.123,409.529 C358.056,410.786 362.858,412.917 366.305,416.469 C366.392,416.559 366.535,416.575 366.643,416.506 C368.052,415.585 376.979,409.511 377.02,403.347 C377.021,403.193 376.854,403.076 376.69,403.118 C374.973,403.557 366.415,404.593 351.551,387.709" fill="#FFFFFE"/>
    <path d="M473.882,371.266 C473.882,371.266 468.247,368.715 451.524,387.709 C436.971,404.24 428.464,403.593 426.502,403.147 C426.275,403.095 426.052,403.249 426.058,403.461 C426.203,409.491 434.759,415.404 436.362,416.459 C436.51,416.557 436.708,416.532 436.829,416.408 C440.251,412.913 444.991,410.804 449.864,409.551 C450.044,409.505 450.15,409.345 450.113,409.178 C449.803,407.792 449.691,406.266 449.834,404.671 C450.355,398.866 453.976,394.399 457.92,394.694 C458.275,394.72 458.619,394.788 458.952,394.89 C459.245,394.98 459.296,395.341 459.027,395.482 C457.875,396.086 457.014,397.347 456.867,398.863 C456.651,401.095 458.068,403.033 460.033,403.192 C461.32,403.295 462.522,402.609 463.259,401.495 C463.432,401.236 463.863,401.301 463.922,401.6 C464.172,402.887 464.248,404.286 464.118,405.741 C464.065,406.324 463.981,406.895 463.869,407.448 C463.828,407.65 463.994,407.832 464.22,407.831 C467.997,407.81 471.723,408.258 472.635,408.376 C472.766,408.394 472.897,408.341 472.977,408.243 C490.481,386.503 477.443,371.831 473.882,371.266" fill="#FFFFFE"/>
    <path d="M343.975,328.148" fill="#D8252D"/>
    <path d="M297.978,308.235 C297.978,308.235 306.927,300.902 321.832,310.9 C321.832,310.9 317.329,334.741 336.788,336.254 C336.788,336.254 337.021,342.279 334.071,343.483 C331.59,344.496 325.066,345.325 316.572,328.189 C316.572,328.189 312.685,329.781 310.705,332.427 C310.705,332.427 309.54,313.574 297.978,308.235" fill="#D8252D"/>
    <path d="M293.161,270.482 C293.161,270.482 311.947,270.482 325.599,302.085 C325.599,302.085 324.522,303.226 323.437,306.345 C323.437,306.345 318.313,303.07 313.499,302.085 C313.499,302.085 314.896,287.634 293.161,270.482" fill="#D8252D"/>
    <path d="M334.925,290.752 C334.925,290.752 340.515,285.082 352.314,284.799 C352.314,284.799 332.597,265.095 333.838,244.825 C333.838,244.825 322.815,262.261 334.925,290.752" fill="#D8252D"/>
    <path d="M427.407,330.443 C427.2,326.378 423.164,321.465 423.164,321.465 C412.71,311.66 397.287,323.733 397.287,323.733 C383.314,334.884 387.868,345.94 387.868,345.94 C392.216,357.564 405.464,352.46 405.464,352.46 C402.67,351.989 398.736,350.287 398.736,350.287 C392.061,346.743 392.658,337.856 398.966,330.325 C405.102,323 418.195,326.473 419.748,333.749 C414.779,329.781 409.294,330.536 409.294,330.536 C415.193,337.246 412.399,340.27 412.399,340.27 C412.089,337.341 406.292,326.284 401.014,335.173 C395.734,344.063 401.117,347.83 401.117,347.83 C409.19,353.783 420.776,341.31 420.776,341.31 C416.176,358.216 394.001,358.934 388.282,352.744 C385.151,350.146 375.913,336.821 394.414,321.087 C410.666,307.221 429.892,314.85 432.479,326.851 L427.407,330.443 z M474.192,331.292 C476.055,310.031 489.252,297.273 489.252,297.273 C489.563,262.544 479.315,256.874 479.315,256.874 C483.508,277.003 472.484,286.783 472.484,286.783 C481.334,311.448 469.845,316.267 469.845,316.267 C472.019,312.866 471.242,302.085 471.242,302.085 C468.758,282.091 452.301,275.018 436.153,275.018 C420.007,275.018 415.038,288.413 415.038,288.413 C433.515,277.995 445.935,287.492 445.935,287.492 C466.118,303.793 440.346,324.789 440.346,324.789 C454.939,307.655 447.021,296.706 447.021,296.706 C445.158,311.023 425.751,313.29 425.751,313.29 C449.506,303.368 440.812,293.02 440.812,293.02 C432.272,281.538 411.002,295.855 411.002,295.855 C404.17,281.964 425.44,272.467 425.44,272.467 C439.104,266.088 450.903,272.75 450.903,272.75 C447.487,262.261 453.077,250.637 453.077,250.637 C460.84,229.091 478.539,231.075 478.539,231.075 C449.972,214.066 427.459,267.789 427.459,267.789 C444.692,201.592 382.279,218.46 382.279,218.46 C412.244,218.602 414.262,234.903 414.262,234.903 C416.901,266.938 397.805,273.742 397.805,273.742 C403.395,269.206 407.275,257.724 407.275,257.724 C405.257,258.717 402.773,258.717 402.773,258.717 C389.887,257.441 389.421,242.557 389.421,242.557 C378.708,254.606 381.969,276.861 381.969,276.861 C413.486,272.467 407.586,288.413 407.586,288.413 C383.677,292.879 391.75,316.551 391.75,316.551 C387.558,312.44 386.937,304.502 386.937,304.502 C381.348,308.896 380.727,321.229 380.727,321.229 C375.603,291.178 402.773,285.791 402.773,285.791 C399.006,275.585 376.454,279.646 369.858,293.162 C362.872,307.479 371.114,316.929 371.114,316.929 L369.002,328.148 C369.002,328.148 360.077,318.11 360.854,302.085 C361.479,289.188 376.224,279.554 376.224,279.554 C373.585,253.33 382.9,243.124 382.9,243.124 C380.727,231.359 384.452,221.578 384.452,221.578 C379.95,220.728 371.256,221.72 371.256,221.72 C379.95,215.058 389.576,212.79 389.576,212.79 C393.303,205.986 399.006,200.316 399.006,200.316 C341.209,210.522 363.441,289.902 363.441,289.902 C363.441,289.902 337.674,282.155 326.8,309.18 C326.8,309.18 321.107,329.946 336.245,331.505 C336.245,331.505 335.624,326.19 333.373,323.355 C333.373,323.355 339.66,323.922 345.405,330.158 C345.405,330.158 352.081,328.316 353.866,323.426 C353.866,323.426 333.218,325.268 335.701,311.944 C338.186,298.619 352.702,298.903 352.702,298.903 L351.771,303.156 C351.771,303.156 346.182,302.871 343.93,306.345 C343.93,306.345 352.392,308.4 354.798,315.629 C354.798,315.629 342.61,305.597 339.894,312.298 C337.177,318.999 348.898,322.575 357.205,319.244 C357.205,319.244 359.949,328.802 348.887,333.042 C348.887,333.042 356.777,344.759 358.709,357.989 C358.776,358.45 359.417,358.616 359.738,358.255 C361.387,356.397 364.809,350.928 364.64,337.658 C364.634,337.223 365.163,336.957 365.553,337.207 C366.244,337.649 378.997,351.914 381.201,368.793 C381.266,369.287 381.969,369.448 382.267,369.031 C383.615,367.146 386.111,362.809 387.131,355.482 C387.192,355.039 387.794,354.86 388.13,355.184 C390.894,357.85 399.47,367.059 401.417,380.329 C403.363,367.059 411.94,357.85 414.703,355.184 C415.04,354.86 415.641,355.039 415.703,355.482 C416.722,362.809 419.219,367.146 420.567,369.031 C420.865,369.448 421.567,369.287 421.633,368.793 C424.478,347 434.215,339.166 437.28,337.207 C437.671,336.957 438.199,337.223 438.194,337.658 C438.025,350.928 441.447,356.397 443.096,358.255 C443.417,358.616 444.05,358.449 444.124,357.989 C448.992,327.794 466.022,323.389 470.996,322.746 C471.505,322.681 471.855,323.203 471.554,323.583 C468.014,328.035 461.927,339.754 468.954,342.766 C477.333,346.357 485.684,329.789 487.304,326.366 C487.456,326.042 487.896,325.949 488.203,326.162 C489.077,326.77 490.223,329.043 490.485,328.148 C498.861,299.629 515.801,292.737 515.801,292.737 C490.96,286.216 474.192,331.292 474.192,331.292" fill="#D8252D"/>
    <path d="M379.725,437.434 C379.931,437.845 380.156,438.234 380.387,438.625 C380.619,439.022 380.929,439.354 381.185,439.73 C381.442,440.109 381.507,440.621 381.788,440.98 C382.071,441.34 382.417,441.647 382.723,441.986 C383.029,442.325 383.328,442.671 383.656,442.989 C383.984,443.307 384.28,443.664 384.629,443.959 C384.978,444.254 385.324,444.562 385.692,444.833 C386.059,445.104 386.543,445.207 386.929,445.454 C387.312,445.7 387.702,445.927 388.103,446.149 C388.501,446.369 388.928,446.521 389.343,446.718 C389.753,446.912 390.085,447.286 390.511,447.457 C390.933,447.627 391.438,447.565 391.874,447.711 C392.304,447.855 392.651,448.28 393.095,448.4 C393.533,448.519 393.983,448.631 394.434,448.726 C394.877,448.82 395.334,448.905 395.789,448.976 C396.236,449.045 396.718,448.897 397.176,448.943 C397.627,448.989 398.083,448.96 398.543,448.983 C398.996,449.006 399.446,449.344 399.908,449.344 C400.37,449.344 400.844,449.154 401.314,449.132 C401.428,449.127 401.428,448.944 401.542,448.944 C401.656,448.944 401.657,449.076 401.771,449.081 C402.242,449.103 402.713,449.181 403.176,449.181 C403.637,449.181 404.097,449.213 404.55,449.191 C405.01,449.167 405.462,449.061 405.914,449.015 C406.372,448.969 406.826,448.916 407.274,448.847 C407.729,448.777 408.163,448.621 408.606,448.528 C409.057,448.432 409.483,448.276 409.922,448.157 C410.366,448.036 410.865,448.11 411.296,447.965 C411.731,447.82 412.205,447.757 412.627,447.588 C413.053,447.416 413.349,446.946 413.76,446.751 C414.174,446.554 414.666,446.515 415.064,446.294 C415.465,446.072 415.819,445.769 416.202,445.523 C416.588,445.276 416.918,444.954 417.284,444.684 C417.652,444.412 418.037,444.168 418.386,443.873 C418.734,443.578 418.98,443.18 419.309,442.863 C419.637,442.544 419.954,442.231 420.26,441.892 C420.565,441.553 421.023,441.346 421.307,440.986 C421.587,440.627 421.875,440.266 422.133,439.888 C422.389,439.512 422.701,439.159 422.934,438.764 C423.164,438.371 423.155,437.845 423.361,437.435 C423.55,437.058 423.976,436.792 424.135,436.413 C424.298,436.025 424.42,435.614 424.554,435.224 C424.689,434.826 424.514,434.338 424.619,433.941 C424.728,433.534 424.989,433.12 425.066,432.717 C425.16,433.147 425.267,433.634 425.315,434.083 C425.362,434.52 425.456,434.97 425.46,435.422 C425.464,435.862 425.236,436.3 425.199,436.751 C425.163,437.19 425.345,437.663 425.27,438.109 C425.196,438.543 425.126,438.997 425.016,439.436 C424.908,439.863 424.813,440.313 424.67,440.741 C424.53,441.159 424.29,441.559 424.116,441.976 C423.947,442.384 423.537,442.687 423.335,443.091 C423.129,443.502 423.07,443.987 422.84,444.379 C422.607,444.775 422.378,445.175 422.121,445.551 C421.863,445.93 421.432,446.177 421.15,446.535 C420.867,446.896 420.681,447.329 420.375,447.668 C420.068,448.008 419.727,448.312 419.399,448.629 C419.071,448.948 418.686,449.196 418.337,449.491 C417.988,449.785 417.747,450.215 417.379,450.487 C417.012,450.757 416.53,450.862 416.145,451.109 C415.762,451.355 415.48,451.776 415.079,451.997 C414.682,452.218 414.254,452.399 413.84,452.596 C413.429,452.79 412.991,452.94 412.565,453.111 C412.144,453.281 411.716,453.446 411.28,453.591 C410.85,453.736 410.355,453.667 409.912,453.787 C409.474,453.907 409.066,454.143 408.616,454.238 C408.173,454.332 407.731,454.461 407.276,454.532 C406.829,454.601 406.373,454.639 405.915,454.686 C405.464,454.732 405.017,454.951 404.557,454.974 C404.104,454.996 403.637,454.624 403.176,454.624 C402.713,454.624 402.247,454.672 401.776,454.651 C401.662,454.645 401.656,454.971 401.542,454.971 C401.428,454.971 401.422,454.649 401.308,454.655 C400.837,454.676 400.37,454.628 399.908,454.628 C399.447,454.628 398.988,454.838 398.535,454.816 C398.075,454.792 397.635,454.594 397.184,454.548 C396.726,454.501 396.255,454.606 395.807,454.536 C395.352,454.465 394.938,454.204 394.495,454.111 C394.045,454.015 393.612,453.898 393.174,453.78 C392.729,453.659 392.226,453.759 391.794,453.615 C391.358,453.469 391,453.123 390.578,452.953 C390.152,452.783 389.677,452.737 389.267,452.541 C388.852,452.345 388.535,451.971 388.137,451.75 C387.736,451.529 387.342,451.317 386.959,451.072 C386.573,450.824 386.074,450.747 385.708,450.477 C385.34,450.205 385.104,449.77 384.756,449.476 C384.406,449.18 383.854,449.108 383.525,448.79 C383.197,448.472 383.14,447.892 382.833,447.553 C382.528,447.214 382.026,447.042 381.744,446.682 C381.463,446.324 381.323,445.859 381.065,445.48 C380.809,445.104 380.544,444.735 380.312,444.339 C380.082,443.947 379.712,443.623 379.507,443.213 C379.305,442.809 379.3,442.318 379.13,441.91 C378.957,441.493 378.815,441.075 378.676,440.658 C378.532,440.229 378.223,439.853 378.115,439.425 C378.005,438.987 378.039,438.519 377.966,438.084 C377.891,437.638 377.855,437.195 377.819,436.757 C377.782,436.306 377.912,435.865 377.916,435.425 C377.919,434.973 377.615,434.51 377.662,434.073 C377.71,433.623 377.923,433.154 378.017,432.725 C378.094,433.128 378.001,433.631 378.108,434.037 C378.215,434.435 378.357,434.84 378.493,435.238 C378.627,435.627 379.087,435.899 379.25,436.286 C379.409,436.666 379.536,437.057 379.725,437.434" fill="#A7262A"/>
    <path d="M482.526,356.274 C482.902,356.854 482.064,356.591 481.236,356.943 C480.881,357.093 480.327,356.986 479.84,357.204 C479.46,357.376 479.124,357.754 478.67,357.969 C478.28,358.153 477.876,358.375 477.436,358.592 C477.043,358.785 476.617,358.962 476.187,359.183 C475.793,359.384 475.39,359.605 474.967,359.829 C474.573,360.037 474.187,360.291 473.77,360.52 C473.377,360.735 472.91,360.844 472.498,361.077 C472.107,361.298 471.814,361.713 471.406,361.95 C471.018,362.178 470.647,362.452 470.244,362.695 C469.856,362.927 469.294,362.889 468.895,363.136 C468.51,363.374 468.113,363.613 467.717,363.864 C467.334,364.108 466.95,364.366 466.558,364.623 C466.177,364.871 465.938,365.347 465.55,365.609 C465.172,365.863 464.664,365.937 464.28,366.202 C463.905,366.461 463.578,366.8 463.197,367.07 C462.826,367.333 462.491,367.658 462.114,367.933 C461.746,368.201 461.254,368.312 460.881,368.591 C460.515,368.865 460.314,369.364 459.945,369.647 C459.582,369.925 459.207,370.191 458.842,370.479 C458.483,370.761 458.024,370.923 457.663,371.215 C457.309,371.502 456.853,371.676 456.495,371.973 C456.144,372.266 456.005,372.818 455.65,373.119 C455.302,373.417 454.984,373.753 454.634,374.059 C454.289,374.362 453.929,374.648 453.582,374.958 C453.241,375.265 452.909,375.583 452.567,375.899 C452.231,376.209 451.695,376.311 451.359,376.629 C451.025,376.945 450.648,377.222 450.315,377.545 C449.985,377.866 449.771,378.309 449.441,378.638 C449.117,378.961 448.778,379.276 448.454,379.608 C448.133,379.938 447.735,380.199 447.414,380.537 C447.097,380.871 446.861,381.288 446.545,381.63 C446.085,382.153 446.27,382.067 445.673,382.718 C445.406,383.009 445.195,383.46 444.827,383.845 C444.531,384.153 443.938,384.227 443.583,384.581 C443.271,384.894 443.134,385.42 442.78,385.76 C442.456,386.071 442.122,386.4 441.766,386.728 C441.433,387.033 440.945,387.191 440.586,387.506 C440.243,387.808 440.042,388.29 439.678,388.597 C439.326,388.892 438.842,389.04 438.473,389.335 C438.111,389.623 437.839,390.034 437.462,390.32 C437.093,390.599 436.54,390.634 436.157,390.908 C435.778,391.176 435.609,391.754 435.219,392.014 C434.83,392.272 434.328,392.362 433.93,392.607 C433.531,392.852 433.221,393.253 432.813,393.483 C432.405,393.712 431.936,393.837 431.52,394.048 C431.101,394.26 430.728,394.582 430.303,394.771 C429.872,394.962 429.326,394.87 428.892,395.034 C428.45,395.201 428.077,395.555 427.633,395.69 C427.182,395.827 426.727,395.969 426.274,396.071 C425.814,396.173 425.347,396.287 424.888,396.349 C424.421,396.411 423.925,396.409 423.461,396.425 C422.789,396.375 422.908,396.349 422.128,396.084 C421.761,395.959 421.303,395.833 420.847,395.622 C420.466,395.447 420.044,395.232 419.636,394.985 C419.268,394.762 418.953,394.396 418.585,394.106 C418.242,393.836 417.988,393.445 417.665,393.111 C417.361,392.796 417.171,392.39 416.9,392.013 C416.646,391.658 416.318,391.352 416.106,390.939 C415.908,390.552 415.832,390.114 415.682,389.671 C415.542,389.261 415.444,388.845 415.354,388.384 C415.271,387.96 414.876,387.56 414.843,387.09 C414.812,386.658 414.96,386.215 414.976,385.744 C415.626,385.787 415.247,386.143 415.687,386.807 C415.892,387.118 415.965,387.62 416.298,387.98 C416.57,388.273 417.015,388.442 417.384,388.729 C417.706,388.981 417.956,389.408 418.36,389.63 C418.721,389.828 419.255,389.697 419.686,389.854 C420.073,389.996 420.398,390.423 420.847,390.521 C421.25,390.609 421.699,390.641 422.155,390.683 C422.567,390.722 423.013,390.686 423.471,390.68 C423.915,390.675 424.348,390.473 424.807,390.4 C425.243,390.329 425.754,390.521 426.202,390.393 C426.627,390.272 426.97,389.857 427.404,389.689 C427.816,389.529 428.27,389.443 428.689,389.242 C429.091,389.052 429.555,388.954 429.961,388.731 C430.352,388.517 430.723,388.242 431.117,388 C431.498,387.767 431.894,387.536 432.278,387.28 C432.65,387.032 433.031,386.778 433.406,386.509 C433.771,386.248 434.062,385.875 434.429,385.598 C434.787,385.326 435.074,384.956 435.434,384.671 C435.787,384.392 436.218,384.204 436.571,383.913 C436.92,383.626 437.239,383.302 437.589,383.005 C437.933,382.713 438.287,382.429 438.632,382.129 C438.972,381.832 439.237,381.449 439.577,381.146 C439.915,380.845 440.365,380.667 440.703,380.362 C441.039,380.057 441.425,379.806 441.76,379.498 C442.096,379.192 442.44,378.894 442.774,378.584 C443.109,378.275 443.292,377.802 443.625,377.492 C443.959,377.181 444.425,377.012 444.758,376.702 C445.092,376.391 445.296,375.942 445.628,375.633 C445.963,375.322 446.459,375.188 446.791,374.881 C447.127,374.571 447.442,374.243 447.774,373.94 C448.112,373.63 448.417,373.289 448.751,372.988 C449.091,372.681 449.514,372.474 449.849,372.176 C450.192,371.872 450.44,371.468 450.779,371.176 C451.134,370.869 451.376,370.421 451.744,370.125 C452.109,369.83 452.572,369.654 452.949,369.369 C453.324,369.086 453.632,368.706 454.017,368.433 C454.399,368.16 454.946,368.124 455.338,367.862 C455.729,367.6 455.983,367.129 456.382,366.877 C456.779,366.625 457.211,366.425 457.614,366.182 C458.019,365.94 458.364,365.593 458.772,365.36 C459.182,365.125 459.648,364.99 460.062,364.765 C460.476,364.539 460.981,364.487 461.397,364.27 C461.817,364.052 462.243,363.854 462.662,363.645 C463.087,363.435 463.368,362.934 463.791,362.733 C464.221,362.53 464.759,362.565 465.186,362.37 C465.618,362.173 465.991,361.851 466.42,361.664 C466.857,361.474 467.264,361.219 467.693,361.039 C468.134,360.856 468.584,360.705 469.015,360.533 C469.459,360.354 469.993,360.428 470.426,360.262 C470.873,360.09 471.237,359.721 471.671,359.561 C472.123,359.395 472.656,359.484 473.09,359.33 C473.547,359.168 473.94,358.866 474.375,358.719 C474.836,358.563 475.269,358.368 475.701,358.228 C476.167,358.076 476.634,357.991 477.063,357.858 C477.538,357.711 478.017,357.672 478.44,357.547 C478.929,357.404 479.303,357 479.714,356.885 C480.234,356.741 480.736,356.788 481.118,356.689 C481.99,356.461 482.145,355.685 482.526,356.274" fill="#A7262A"/>
    <path d="M320.446,356.215 C320.07,356.796 321.098,356.354 321.927,356.705 C322.282,356.856 322.638,357.199 323.125,357.419 C323.506,357.59 324.012,357.598 324.466,357.813 C324.855,357.996 325.28,358.184 325.721,358.401 C326.113,358.594 326.452,358.949 326.883,359.168 C327.276,359.369 327.586,359.77 328.009,359.993 C328.402,360.202 328.804,360.422 329.221,360.651 C329.613,360.866 330.063,361.002 330.475,361.235 C330.866,361.456 331.321,361.587 331.729,361.824 C332.118,362.051 332.502,362.307 332.905,362.549 C333.293,362.782 333.611,363.143 334.011,363.389 C334.396,363.627 334.901,363.688 335.297,363.94 C335.68,364.183 335.942,364.627 336.334,364.883 C336.715,365.132 337.211,365.218 337.6,365.479 C337.978,365.733 338.365,365.983 338.75,366.248 C339.125,366.507 339.56,366.693 339.94,366.962 C340.313,367.227 340.693,367.491 341.07,367.765 C341.438,368.033 341.735,368.409 342.108,368.689 C342.474,368.962 342.729,369.388 343.098,369.672 C343.46,369.95 343.984,370.027 344.35,370.315 C344.708,370.597 345.03,370.933 345.391,371.225 C345.746,371.512 345.952,371.986 346.31,372.283 C346.662,372.575 347.065,372.809 347.419,373.111 C347.769,373.408 348.29,373.51 348.641,373.817 C348.985,374.118 349.317,374.443 349.664,374.753 C350.005,375.06 350.366,375.352 350.708,375.667 C351.044,375.977 351.32,376.36 351.656,376.678 C351.99,376.993 352.363,377.273 352.696,377.597 C353.026,377.917 353.231,378.368 353.561,378.697 C353.886,379.021 354.392,379.171 354.716,379.503 C355.037,379.832 355.188,380.33 355.51,380.668 C355.827,381.002 356.242,381.251 356.559,381.593 C357.019,382.116 356.82,382.041 357.417,382.693 C357.684,382.984 358.116,383.22 358.485,383.605 C358.781,383.913 358.944,384.407 359.3,384.761 C359.611,385.073 360.091,385.251 360.444,385.591 C360.768,385.901 360.97,386.368 361.326,386.696 C361.659,387.002 362.107,387.2 362.467,387.517 C362.81,387.819 363.227,388.045 363.591,388.351 C363.942,388.647 364.2,389.065 364.57,389.361 C364.931,389.649 365.243,390.009 365.619,390.294 C365.989,390.574 366.385,390.826 366.768,391.1 C367.146,391.369 367.589,391.55 367.979,391.81 C368.368,392.068 368.727,392.373 369.125,392.618 C369.523,392.864 369.981,393.004 370.388,393.234 C370.797,393.463 371.143,393.806 371.559,394.016 C371.978,394.228 372.35,394.547 372.775,394.737 C373.205,394.928 373.64,395.125 374.074,395.289 C374.516,395.456 375.073,395.268 375.517,395.403 C375.968,395.54 376.339,395.954 376.791,396.056 C377.251,396.158 377.728,396.196 378.188,396.257 C378.653,396.32 379.124,396.243 379.589,396.259 C380.261,396.209 380.076,396.118 380.856,395.854 C381.224,395.73 381.729,395.766 382.185,395.555 C382.564,395.379 382.851,394.955 383.259,394.708 C383.627,394.485 383.946,394.188 384.313,393.899 C384.656,393.629 385.105,393.475 385.428,393.141 C385.732,392.826 386.109,392.547 386.381,392.17 C386.636,391.817 386.77,391.366 386.982,390.952 C387.181,390.566 387.383,390.165 387.534,389.724 C387.674,389.313 387.979,388.915 388.068,388.454 C388.151,388.031 387.968,387.544 388.002,387.074 C388.032,386.643 388.093,386.067 388.077,385.595 C387.426,385.639 387.803,386.135 387.364,386.799 C387.158,387.111 386.888,387.426 386.555,387.784 C386.282,388.078 386.138,388.557 385.769,388.845 C385.446,389.096 385.069,389.342 384.665,389.564 C384.306,389.762 383.937,390.048 383.506,390.206 C383.118,390.349 382.677,390.481 382.229,390.578 C381.824,390.666 381.37,390.714 380.914,390.757 C380.501,390.795 380.053,390.447 379.595,390.441 C379.149,390.436 378.702,390.547 378.244,390.474 C377.807,390.404 377.412,390.157 376.964,390.03 C376.539,389.908 376.085,389.876 375.65,389.707 C375.238,389.547 374.755,389.52 374.335,389.321 C373.935,389.13 373.514,388.943 373.107,388.72 C372.717,388.505 372.374,388.185 371.979,387.943 C371.6,387.71 371.152,387.56 370.769,387.304 C370.396,387.055 370.066,386.729 369.691,386.46 C369.326,386.199 368.944,385.949 368.577,385.671 C368.219,385.4 367.888,385.083 367.527,384.798 C367.175,384.519 366.823,384.231 366.469,383.94 C366.12,383.653 365.651,383.503 365.302,383.207 C364.958,382.915 364.648,382.575 364.304,382.275 C363.963,381.979 363.747,381.536 363.407,381.234 C363.068,380.933 362.566,380.811 362.229,380.505 C361.893,380.201 361.711,379.726 361.375,379.418 C361.04,379.112 360.756,378.748 360.422,378.44 C360.087,378.13 359.644,377.938 359.311,377.628 C358.977,377.317 358.67,376.977 358.338,376.667 C358.003,376.356 357.729,375.981 357.397,375.672 C357.063,375.361 356.778,374.998 356.446,374.692 C356.11,374.381 355.706,374.149 355.374,373.845 C355.036,373.535 354.737,373.188 354.403,372.886 C354.063,372.578 353.742,372.255 353.406,371.958 C353.063,371.654 352.7,371.377 352.361,371.085 C352.006,370.779 351.521,370.625 351.153,370.329 C350.788,370.034 350.512,369.624 350.136,369.34 C349.761,369.057 349.278,368.919 348.895,368.647 C348.511,368.374 348.083,368.172 347.691,367.91 C347.301,367.649 346.944,367.341 346.547,367.089 C346.148,366.836 345.891,366.359 345.487,366.116 C345.084,365.872 344.534,365.88 344.126,365.647 C343.716,365.412 343.286,365.224 342.874,364.998 C342.459,364.773 342.081,364.486 341.665,364.27 C341.245,364.051 340.963,363.566 340.543,363.357 C340.118,363.146 339.536,363.266 339.113,363.065 C338.684,362.861 338.396,362.36 337.97,362.166 C337.537,361.969 336.97,362.083 336.541,361.896 C336.104,361.705 335.774,361.277 335.345,361.097 C334.904,360.913 334.392,360.921 333.96,360.748 C333.517,360.571 333.121,360.291 332.688,360.124 C332.241,359.952 331.838,359.686 331.404,359.526 C330.952,359.36 330.515,359.178 330.08,359.024 C329.623,358.863 329.073,359.01 328.639,358.864 C328.178,358.706 327.8,358.351 327.367,358.21 C326.9,358.059 326.424,358.005 325.995,357.872 C325.52,357.725 325.112,357.446 324.688,357.321 C324.2,357.177 323.768,356.97 323.356,356.855 C322.837,356.71 322.34,356.736 321.958,356.636 C321.086,356.408 320.828,355.627 320.446,356.215" fill="#A7262A"/>
  </g>
</svg>
